<?xml version="1.0" encoding="utf-8" standalone="no"?>
<!DOCTYPE svg PUBLIC "-//W3C//DTD SVG 1.1//EN"
  "http://www.w3.org/Graphics/SVG/1.1/DTD/svg11.dtd">
<!-- Created with matplotlib (https://matplotlib.org/) -->
<svg height="345.6pt" version="1.1" viewBox="0 0 460.8 345.6" width="460.8pt" xmlns="http://www.w3.org/2000/svg" xmlns:xlink="http://www.w3.org/1999/xlink">
 <defs>
  <style type="text/css">
*{stroke-linecap:butt;stroke-linejoin:round;}
  </style>
 </defs>
 <g id="figure_1">
  <g id="patch_1">
   <path d="M 0 345.6 
L 460.8 345.6 
L 460.8 0 
L 0 0 
z
" style="fill:#ffffff;"/>
  </g>
  <g id="axes_1">
   <g id="patch_2">
    <path d="M 103.104 307.584 
L 369.216 307.584 
L 369.216 41.472 
L 103.104 41.472 
z
" style="fill:#ffffff;"/>
   </g>
   <g id="PathCollection_1">
    <defs>
     <path d="M 0 2.236068 
C 0.593012 2.236068 1.161816 2.000462 1.581139 1.581139 
C 2.000462 1.161816 2.236068 0.593012 2.236068 0 
C 2.236068 -0.593012 2.000462 -1.161816 1.581139 -1.581139 
C 1.161816 -2.000462 0.593012 -2.236068 0 -2.236068 
C -0.593012 -2.236068 -1.161816 -2.000462 -1.581139 -1.581139 
C -2.000462 -1.161816 -2.236068 -0.593012 -2.236068 0 
C -2.236068 0.593012 -2.000462 1.161816 -1.581139 1.581139 
C -1.161816 2.000462 -0.593012 2.236068 0 2.236068 
z
" id="C0_0_32188cf849"/>
    </defs>
    <g clip-path="url(#pe451f488ca)">
     <use style="fill:#0000ff;stroke:#0000ff;" x="247.241924" xlink:href="#C0_0_32188cf849" y="130.062369"/>
    </g>
    <g clip-path="url(#pe451f488ca)">
     <use style="fill:#0005fc;stroke:#0005fc;" x="258.233184" xlink:href="#C0_0_32188cf849" y="140.790655"/>
    </g>
    <g clip-path="url(#pe451f488ca)">
     <use style="fill:#000afa;stroke:#000afa;" x="268.490204" xlink:href="#C0_0_32188cf849" y="151.802564"/>
    </g>
    <g clip-path="url(#pe451f488ca)">
     <use style="fill:#000ff8;stroke:#000ff8;" x="279.506352" xlink:href="#C0_0_32188cf849" y="162.780799"/>
    </g>
    <g clip-path="url(#pe451f488ca)">
     <use style="fill:#0014f5;stroke:#0014f5;" x="289.618639" xlink:href="#C0_0_32188cf849" y="173.660696"/>
    </g>
    <g clip-path="url(#pe451f488ca)">
     <use style="fill:#001af2;stroke:#001af2;" x="300.676444" xlink:href="#C0_0_32188cf849" y="184.061273"/>
    </g>
    <g clip-path="url(#pe451f488ca)">
     <use style="fill:#001ff0;stroke:#001ff0;" x="310.647359" xlink:href="#C0_0_32188cf849" y="194.870406"/>
    </g>
    <g clip-path="url(#pe451f488ca)">
     <use style="fill:#0024ed;stroke:#0024ed;" x="320.325592" xlink:href="#C0_0_32188cf849" y="202.490434"/>
    </g>
    <g clip-path="url(#pe451f488ca)">
     <use style="fill:#0029eb;stroke:#0029eb;" x="330.9654" xlink:href="#C0_0_32188cf849" y="209.757625"/>
    </g>
    <g clip-path="url(#pe451f488ca)">
     <use style="fill:#002fe8;stroke:#002fe8;" x="332.644801" xlink:href="#C0_0_32188cf849" y="213.755671"/>
    </g>
    <g clip-path="url(#pe451f488ca)">
     <use style="fill:#0034e5;stroke:#0034e5;" x="338.421379" xlink:href="#C0_0_32188cf849" y="208.946311"/>
    </g>
    <g clip-path="url(#pe451f488ca)">
     <use style="fill:#0039e2;stroke:#0039e2;" x="332.21518" xlink:href="#C0_0_32188cf849" y="218.552996"/>
    </g>
    <g clip-path="url(#pe451f488ca)">
     <use style="fill:#003ee0;stroke:#003ee0;" x="330.594298" xlink:href="#C0_0_32188cf849" y="219.691346"/>
    </g>
    <g clip-path="url(#pe451f488ca)">
     <use style="fill:#0043de;stroke:#0043de;" x="335.54586" xlink:href="#C0_0_32188cf849" y="218.784366"/>
    </g>
    <g clip-path="url(#pe451f488ca)">
     <use style="fill:#0049db;stroke:#0049db;" x="343.55232" xlink:href="#C0_0_32188cf849" y="222.94193"/>
    </g>
    <g clip-path="url(#pe451f488ca)">
     <use style="fill:#004ed8;stroke:#004ed8;" x="347.164158" xlink:href="#C0_0_32188cf849" y="224.352866"/>
    </g>
    <g clip-path="url(#pe451f488ca)">
     <use style="fill:#0053d6;stroke:#0053d6;" x="338.463021" xlink:href="#C0_0_32188cf849" y="220.15856"/>
    </g>
    <g clip-path="url(#pe451f488ca)">
     <use style="fill:#0058d3;stroke:#0058d3;" x="338.138676" xlink:href="#C0_0_32188cf849" y="225.318846"/>
    </g>
    <g clip-path="url(#pe451f488ca)">
     <use style="fill:#005ed0;stroke:#005ed0;" x="339.189903" xlink:href="#C0_0_32188cf849" y="231.481584"/>
    </g>
    <g clip-path="url(#pe451f488ca)">
     <use style="fill:#0063ce;stroke:#0063ce;" x="336.1595" xlink:href="#C0_0_32188cf849" y="222.490482"/>
    </g>
    <g clip-path="url(#pe451f488ca)">
     <use style="fill:#0068cb;stroke:#0068cb;" x="335.267065" xlink:href="#C0_0_32188cf849" y="229.396449"/>
    </g>
    <g clip-path="url(#pe451f488ca)">
     <use style="fill:#006dc8;stroke:#006dc8;" x="337.69652" xlink:href="#C0_0_32188cf849" y="223.99646"/>
    </g>
    <g clip-path="url(#pe451f488ca)">
     <use style="fill:#0072c6;stroke:#0072c6;" x="343.154524" xlink:href="#C0_0_32188cf849" y="215.664659"/>
    </g>
    <g clip-path="url(#pe451f488ca)">
     <use style="fill:#0078c3;stroke:#0078c3;" x="339.120774" xlink:href="#C0_0_32188cf849" y="216.614648"/>
    </g>
    <g clip-path="url(#pe451f488ca)">
     <use style="fill:#007dc0;stroke:#007dc0;" x="339.502899" xlink:href="#C0_0_32188cf849" y="220.493671"/>
    </g>
    <g clip-path="url(#pe451f488ca)">
     <use style="fill:#0082be;stroke:#0082be;" x="335.425513" xlink:href="#C0_0_32188cf849" y="217.157318"/>
    </g>
    <g clip-path="url(#pe451f488ca)">
     <use style="fill:#0087bc;stroke:#0087bc;" x="337.992316" xlink:href="#C0_0_32188cf849" y="222.774354"/>
    </g>
    <g clip-path="url(#pe451f488ca)">
     <use style="fill:#008db8;stroke:#008db8;" x="336.250164" xlink:href="#C0_0_32188cf849" y="218.88889"/>
    </g>
    <g clip-path="url(#pe451f488ca)">
     <use style="fill:#0092b6;stroke:#0092b6;" x="335.293637" xlink:href="#C0_0_32188cf849" y="219.056018"/>
    </g>
    <g clip-path="url(#pe451f488ca)">
     <use style="fill:#0097b3;stroke:#0097b3;" x="339.262192" xlink:href="#C0_0_32188cf849" y="223.337654"/>
    </g>
    <g clip-path="url(#pe451f488ca)">
     <use style="fill:#009cb1;stroke:#009cb1;" x="339.975988" xlink:href="#C0_0_32188cf849" y="221.239123"/>
    </g>
    <g clip-path="url(#pe451f488ca)">
     <use style="fill:#00a1ae;stroke:#00a1ae;" x="343.645251" xlink:href="#C0_0_32188cf849" y="224.229746"/>
    </g>
    <g clip-path="url(#pe451f488ca)">
     <use style="fill:#00a7ac;stroke:#00a7ac;" x="346.202351" xlink:href="#C0_0_32188cf849" y="222.950773"/>
    </g>
    <g clip-path="url(#pe451f488ca)">
     <use style="fill:#00aca9;stroke:#00aca9;" x="344.148189" xlink:href="#C0_0_32188cf849" y="218.815601"/>
    </g>
    <g clip-path="url(#pe451f488ca)">
     <use style="fill:#00b1a6;stroke:#00b1a6;" x="340.291073" xlink:href="#C0_0_32188cf849" y="216.694989"/>
    </g>
    <g clip-path="url(#pe451f488ca)">
     <use style="fill:#00b6a4;stroke:#00b6a4;" x="343.033375" xlink:href="#C0_0_32188cf849" y="217.949773"/>
    </g>
    <g clip-path="url(#pe451f488ca)">
     <use style="fill:#00bca1;stroke:#00bca1;" x="351.643553" xlink:href="#C0_0_32188cf849" y="215.866855"/>
    </g>
    <g clip-path="url(#pe451f488ca)">
     <use style="fill:#00c19e;stroke:#00c19e;" x="348.773762" xlink:href="#C0_0_32188cf849" y="215.42248"/>
    </g>
    <g clip-path="url(#pe451f488ca)">
     <use style="fill:#00c69c;stroke:#00c69c;" x="344.744453" xlink:href="#C0_0_32188cf849" y="223.056922"/>
    </g>
    <g clip-path="url(#pe451f488ca)">
     <use style="fill:#00cb9a;stroke:#00cb9a;" x="350.744654" xlink:href="#C0_0_32188cf849" y="219.544596"/>
    </g>
    <g clip-path="url(#pe451f488ca)">
     <use style="fill:#00d097;stroke:#00d097;" x="345.350401" xlink:href="#C0_0_32188cf849" y="219.23102"/>
    </g>
    <g clip-path="url(#pe451f488ca)">
     <use style="fill:#00d694;stroke:#00d694;" x="348.302361" xlink:href="#C0_0_32188cf849" y="215.753908"/>
    </g>
    <g clip-path="url(#pe451f488ca)">
     <use style="fill:#00db92;stroke:#00db92;" x="345.102185" xlink:href="#C0_0_32188cf849" y="221.694428"/>
    </g>
    <g clip-path="url(#pe451f488ca)">
     <use style="fill:#00e08f;stroke:#00e08f;" x="340.6808" xlink:href="#C0_0_32188cf849" y="215.942366"/>
    </g>
    <g clip-path="url(#pe451f488ca)">
     <use style="fill:#00e58c;stroke:#00e58c;" x="336.856979" xlink:href="#C0_0_32188cf849" y="214.436733"/>
    </g>
    <g clip-path="url(#pe451f488ca)">
     <use style="fill:#00eb8a;stroke:#00eb8a;" x="341.964033" xlink:href="#C0_0_32188cf849" y="212.701415"/>
    </g>
    <g clip-path="url(#pe451f488ca)">
     <use style="fill:#00f087;stroke:#00f087;" x="343.186582" xlink:href="#C0_0_32188cf849" y="220.489603"/>
    </g>
    <g clip-path="url(#pe451f488ca)">
     <use style="fill:#00f584;stroke:#00f584;" x="339.099815" xlink:href="#C0_0_32188cf849" y="213.692087"/>
    </g>
    <g clip-path="url(#pe451f488ca)">
     <use style="fill:#00fa82;stroke:#00fa82;" x="341.835436" xlink:href="#C0_0_32188cf849" y="213.167992"/>
    </g>
    <g clip-path="url(#pe451f488ca)">
     <use style="fill:#00ff80;stroke:#00ff80;" x="344.183018" xlink:href="#C0_0_32188cf849" y="217.735991"/>
    </g>
   </g>
   <g id="PathCollection_2">
    <defs>
     <path d="M 0 2.738613 
C 0.726289 2.738613 1.422928 2.450055 1.936492 1.936492 
C 2.450055 1.422928 2.738613 0.726289 2.738613 0 
C 2.738613 -0.726289 2.450055 -1.422928 1.936492 -1.936492 
C 1.422928 -2.450055 0.726289 -2.738613 0 -2.738613 
C -0.726289 -2.738613 -1.422928 -2.450055 -1.936492 -1.936492 
C -2.450055 -1.422928 -2.738613 -0.726289 -2.738613 0 
C -2.738613 0.726289 -2.450055 1.422928 -1.936492 1.936492 
C -1.422928 2.450055 -0.726289 2.738613 0 2.738613 
z
" id="mae18714294" style="stroke:#696969;"/>
    </defs>
    <g clip-path="url(#pe451f488ca)">
     <use style="fill:#696969;stroke:#696969;" x="343.564337" xlink:href="#mae18714294" y="202.072197"/>
    </g>
   </g>
   <g id="patch_3">
    <path clip-path="url(#pe451f488ca)" d="M 236.16 285.408 
C 265.56572 285.408 293.771016 273.724984 314.564 252.932 
C 335.356984 232.139016 347.04 203.93372 347.04 174.528 
C 347.04 145.12228 335.356984 116.916984 314.564 96.124 
C 293.771016 75.331016 265.56572 63.648 236.16 63.648 
C 206.75428 63.648 178.548984 75.331016 157.756 96.124 
C 136.963016 116.916984 125.28 145.12228 125.28 174.528 
C 125.28 203.93372 136.963016 232.139016 157.756 252.932 
C 178.548984 273.724984 206.75428 285.408 236.16 285.408 
z
" style="fill:none;stroke:#696969;stroke-linejoin:miter;"/>
   </g>
   <g id="matplotlib.axis_1">
    <g id="xtick_1">
     <g id="line2d_1">
      <defs>
       <path d="M 0 0 
L 0 3.5 
" id="m1c8c14a903" style="stroke:#000000;stroke-width:0.8;"/>
      </defs>
      <g>
       <use style="stroke:#000000;stroke-width:0.8;" x="125.28" xlink:href="#m1c8c14a903" y="307.584"/>
      </g>
     </g>
     <g id="text_1">
      <!-- −0.10 -->
      <defs>
       <path d="M 10.59375 35.5 
L 73.1875 35.5 
L 73.1875 27.203125 
L 10.59375 27.203125 
z
" id="DejaVuSans-8722"/>
       <path d="M 31.78125 66.40625 
Q 24.171875 66.40625 20.328125 58.90625 
Q 16.5 51.421875 16.5 36.375 
Q 16.5 21.390625 20.328125 13.890625 
Q 24.171875 6.390625 31.78125 6.390625 
Q 39.453125 6.390625 43.28125 13.890625 
Q 47.125 21.390625 47.125 36.375 
Q 47.125 51.421875 43.28125 58.90625 
Q 39.453125 66.40625 31.78125 66.40625 
z
M 31.78125 74.21875 
Q 44.046875 74.21875 50.515625 64.515625 
Q 56.984375 54.828125 56.984375 36.375 
Q 56.984375 17.96875 50.515625 8.265625 
Q 44.046875 -1.421875 31.78125 -1.421875 
Q 19.53125 -1.421875 13.0625 8.265625 
Q 6.59375 17.96875 6.59375 36.375 
Q 6.59375 54.828125 13.0625 64.515625 
Q 19.53125 74.21875 31.78125 74.21875 
z
" id="DejaVuSans-48"/>
       <path d="M 10.6875 12.40625 
L 21 12.40625 
L 21 0 
L 10.6875 0 
z
" id="DejaVuSans-46"/>
       <path d="M 12.40625 8.296875 
L 28.515625 8.296875 
L 28.515625 63.921875 
L 10.984375 60.40625 
L 10.984375 69.390625 
L 28.421875 72.90625 
L 38.28125 72.90625 
L 38.28125 8.296875 
L 54.390625 8.296875 
L 54.390625 0 
L 12.40625 0 
z
" id="DejaVuSans-49"/>
      </defs>
      <g transform="translate(109.957344 322.182437)scale(0.1 -0.1)">
       <use xlink:href="#DejaVuSans-8722"/>
       <use x="83.789062" xlink:href="#DejaVuSans-48"/>
       <use x="147.412109" xlink:href="#DejaVuSans-46"/>
       <use x="179.199219" xlink:href="#DejaVuSans-49"/>
       <use x="242.822266" xlink:href="#DejaVuSans-48"/>
      </g>
     </g>
    </g>
    <g id="xtick_2">
     <g id="line2d_2">
      <g>
       <use style="stroke:#000000;stroke-width:0.8;" x="180.72" xlink:href="#m1c8c14a903" y="307.584"/>
      </g>
     </g>
     <g id="text_2">
      <!-- −0.05 -->
      <defs>
       <path d="M 10.796875 72.90625 
L 49.515625 72.90625 
L 49.515625 64.59375 
L 19.828125 64.59375 
L 19.828125 46.734375 
Q 21.96875 47.46875 24.109375 47.828125 
Q 26.265625 48.1875 28.421875 48.1875 
Q 40.625 48.1875 47.75 41.5 
Q 54.890625 34.8125 54.890625 23.390625 
Q 54.890625 11.625 47.5625 5.09375 
Q 40.234375 -1.421875 26.90625 -1.421875 
Q 22.3125 -1.421875 17.546875 -0.640625 
Q 12.796875 0.140625 7.71875 1.703125 
L 7.71875 11.625 
Q 12.109375 9.234375 16.796875 8.0625 
Q 21.484375 6.890625 26.703125 6.890625 
Q 35.15625 6.890625 40.078125 11.328125 
Q 45.015625 15.765625 45.015625 23.390625 
Q 45.015625 31 40.078125 35.4375 
Q 35.15625 39.890625 26.703125 39.890625 
Q 22.75 39.890625 18.8125 39.015625 
Q 14.890625 38.140625 10.796875 36.28125 
z
" id="DejaVuSans-53"/>
      </defs>
      <g transform="translate(165.397344 322.182437)scale(0.1 -0.1)">
       <use xlink:href="#DejaVuSans-8722"/>
       <use x="83.789062" xlink:href="#DejaVuSans-48"/>
       <use x="147.412109" xlink:href="#DejaVuSans-46"/>
       <use x="179.199219" xlink:href="#DejaVuSans-48"/>
       <use x="242.822266" xlink:href="#DejaVuSans-53"/>
      </g>
     </g>
    </g>
    <g id="xtick_3">
     <g id="line2d_3">
      <g>
       <use style="stroke:#000000;stroke-width:0.8;" x="236.16" xlink:href="#m1c8c14a903" y="307.584"/>
      </g>
     </g>
     <g id="text_3">
      <!-- 0.00 -->
      <g transform="translate(225.027188 322.182437)scale(0.1 -0.1)">
       <use xlink:href="#DejaVuSans-48"/>
       <use x="63.623047" xlink:href="#DejaVuSans-46"/>
       <use x="95.410156" xlink:href="#DejaVuSans-48"/>
       <use x="159.033203" xlink:href="#DejaVuSans-48"/>
      </g>
     </g>
    </g>
    <g id="xtick_4">
     <g id="line2d_4">
      <g>
       <use style="stroke:#000000;stroke-width:0.8;" x="291.6" xlink:href="#m1c8c14a903" y="307.584"/>
      </g>
     </g>
     <g id="text_4">
      <!-- 0.05 -->
      <g transform="translate(280.467188 322.182437)scale(0.1 -0.1)">
       <use xlink:href="#DejaVuSans-48"/>
       <use x="63.623047" xlink:href="#DejaVuSans-46"/>
       <use x="95.410156" xlink:href="#DejaVuSans-48"/>
       <use x="159.033203" xlink:href="#DejaVuSans-53"/>
      </g>
     </g>
    </g>
    <g id="xtick_5">
     <g id="line2d_5">
      <g>
       <use style="stroke:#000000;stroke-width:0.8;" x="347.04" xlink:href="#m1c8c14a903" y="307.584"/>
      </g>
     </g>
     <g id="text_5">
      <!-- 0.10 -->
      <g transform="translate(335.907187 322.182437)scale(0.1 -0.1)">
       <use xlink:href="#DejaVuSans-48"/>
       <use x="63.623047" xlink:href="#DejaVuSans-46"/>
       <use x="95.410156" xlink:href="#DejaVuSans-49"/>
       <use x="159.033203" xlink:href="#DejaVuSans-48"/>
      </g>
     </g>
    </g>
   </g>
   <g id="matplotlib.axis_2">
    <g id="ytick_1">
     <g id="line2d_6">
      <defs>
       <path d="M 0 0 
L -3.5 0 
" id="med0b0c90a7" style="stroke:#000000;stroke-width:0.8;"/>
      </defs>
      <g>
       <use style="stroke:#000000;stroke-width:0.8;" x="103.104" xlink:href="#med0b0c90a7" y="285.408"/>
      </g>
     </g>
     <g id="text_6">
      <!-- −0.15 -->
      <g transform="translate(65.458688 289.207219)scale(0.1 -0.1)">
       <use xlink:href="#DejaVuSans-8722"/>
       <use x="83.789062" xlink:href="#DejaVuSans-48"/>
       <use x="147.412109" xlink:href="#DejaVuSans-46"/>
       <use x="179.199219" xlink:href="#DejaVuSans-49"/>
       <use x="242.822266" xlink:href="#DejaVuSans-53"/>
      </g>
     </g>
    </g>
    <g id="ytick_2">
     <g id="line2d_7">
      <g>
       <use style="stroke:#000000;stroke-width:0.8;" x="103.104" xlink:href="#med0b0c90a7" y="229.968"/>
      </g>
     </g>
     <g id="text_7">
      <!-- −0.10 -->
      <g transform="translate(65.458688 233.767219)scale(0.1 -0.1)">
       <use xlink:href="#DejaVuSans-8722"/>
       <use x="83.789062" xlink:href="#DejaVuSans-48"/>
       <use x="147.412109" xlink:href="#DejaVuSans-46"/>
       <use x="179.199219" xlink:href="#DejaVuSans-49"/>
       <use x="242.822266" xlink:href="#DejaVuSans-48"/>
      </g>
     </g>
    </g>
    <g id="ytick_3">
     <g id="line2d_8">
      <g>
       <use style="stroke:#000000;stroke-width:0.8;" x="103.104" xlink:href="#med0b0c90a7" y="174.528"/>
      </g>
     </g>
     <g id="text_8">
      <!-- −0.05 -->
      <g transform="translate(65.458688 178.327219)scale(0.1 -0.1)">
       <use xlink:href="#DejaVuSans-8722"/>
       <use x="83.789062" xlink:href="#DejaVuSans-48"/>
       <use x="147.412109" xlink:href="#DejaVuSans-46"/>
       <use x="179.199219" xlink:href="#DejaVuSans-48"/>
       <use x="242.822266" xlink:href="#DejaVuSans-53"/>
      </g>
     </g>
    </g>
    <g id="ytick_4">
     <g id="line2d_9">
      <g>
       <use style="stroke:#000000;stroke-width:0.8;" x="103.104" xlink:href="#med0b0c90a7" y="119.088"/>
      </g>
     </g>
     <g id="text_9">
      <!-- 0.00 -->
      <g transform="translate(73.838375 122.887219)scale(0.1 -0.1)">
       <use xlink:href="#DejaVuSans-48"/>
       <use x="63.623047" xlink:href="#DejaVuSans-46"/>
       <use x="95.410156" xlink:href="#DejaVuSans-48"/>
       <use x="159.033203" xlink:href="#DejaVuSans-48"/>
      </g>
     </g>
    </g>
    <g id="ytick_5">
     <g id="line2d_10">
      <g>
       <use style="stroke:#000000;stroke-width:0.8;" x="103.104" xlink:href="#med0b0c90a7" y="63.648"/>
      </g>
     </g>
     <g id="text_10">
      <!-- 0.05 -->
      <g transform="translate(73.838375 67.447219)scale(0.1 -0.1)">
       <use xlink:href="#DejaVuSans-48"/>
       <use x="63.623047" xlink:href="#DejaVuSans-46"/>
       <use x="95.410156" xlink:href="#DejaVuSans-48"/>
       <use x="159.033203" xlink:href="#DejaVuSans-53"/>
      </g>
     </g>
    </g>
   </g>
   <g id="patch_4">
    <path d="M 103.104 307.584 
L 103.104 41.472 
" style="fill:none;stroke:#000000;stroke-linecap:square;stroke-linejoin:miter;stroke-width:0.8;"/>
   </g>
   <g id="patch_5">
    <path d="M 369.216 307.584 
L 369.216 41.472 
" style="fill:none;stroke:#000000;stroke-linecap:square;stroke-linejoin:miter;stroke-width:0.8;"/>
   </g>
   <g id="patch_6">
    <path d="M 103.104 307.584 
L 369.216 307.584 
" style="fill:none;stroke:#000000;stroke-linecap:square;stroke-linejoin:miter;stroke-width:0.8;"/>
   </g>
   <g id="patch_7">
    <path d="M 103.104 41.472 
L 369.216 41.472 
" style="fill:none;stroke:#000000;stroke-linecap:square;stroke-linejoin:miter;stroke-width:0.8;"/>
   </g>
  </g>
 </g>
 <defs>
  <clipPath id="pe451f488ca">
   <rect height="266.112" width="266.112" x="103.104" y="41.472"/>
  </clipPath>
 </defs>
</svg>
