<?xml version="1.0" encoding="utf-8" standalone="no"?>
<!DOCTYPE svg PUBLIC "-//W3C//DTD SVG 1.1//EN"
  "http://www.w3.org/Graphics/SVG/1.1/DTD/svg11.dtd">
<!-- Created with matplotlib (https://matplotlib.org/) -->
<svg height="345.6pt" version="1.1" viewBox="0 0 460.8 345.6" width="460.8pt" xmlns="http://www.w3.org/2000/svg" xmlns:xlink="http://www.w3.org/1999/xlink">
 <defs>
  <style type="text/css">
*{stroke-linecap:butt;stroke-linejoin:round;}
  </style>
 </defs>
 <g id="figure_1">
  <g id="patch_1">
   <path d="M 0 345.6 
L 460.8 345.6 
L 460.8 0 
L 0 0 
z
" style="fill:#ffffff;"/>
  </g>
  <g id="axes_1">
   <g id="patch_2">
    <path d="M 103.104 307.584 
L 369.216 307.584 
L 369.216 41.472 
L 103.104 41.472 
z
" style="fill:#ffffff;"/>
   </g>
   <g id="PathCollection_1">
    <defs>
     <path d="M 0 2.236068 
C 0.593012 2.236068 1.161816 2.000462 1.581139 1.581139 
C 2.000462 1.161816 2.236068 0.593012 2.236068 0 
C 2.236068 -0.593012 2.000462 -1.161816 1.581139 -1.581139 
C 1.161816 -2.000462 0.593012 -2.236068 0 -2.236068 
C -0.593012 -2.236068 -1.161816 -2.000462 -1.581139 -1.581139 
C -2.000462 -1.161816 -2.236068 -0.593012 -2.236068 0 
C -2.236068 0.593012 -2.000462 1.161816 -1.581139 1.581139 
C -1.161816 2.000462 -0.593012 2.236068 0 2.236068 
z
" id="C0_0_bcfa99e7d2"/>
    </defs>
    <g clip-path="url(#p532e46c990)">
     <use style="fill:#0000ff;stroke:#0000ff;" x="225.178219" xlink:href="#C0_0_bcfa99e7d2" y="122.307867"/>
    </g>
    <g clip-path="url(#p532e46c990)">
     <use style="fill:#0005fc;stroke:#0005fc;" x="214.110571" xlink:href="#C0_0_bcfa99e7d2" y="127.792452"/>
    </g>
    <g clip-path="url(#p532e46c990)">
     <use style="fill:#000afa;stroke:#000afa;" x="203.442228" xlink:href="#C0_0_bcfa99e7d2" y="123.373339"/>
    </g>
    <g clip-path="url(#p532e46c990)">
     <use style="fill:#000ff8;stroke:#000ff8;" x="192.593994" xlink:href="#C0_0_bcfa99e7d2" y="122.284926"/>
    </g>
    <g clip-path="url(#p532e46c990)">
     <use style="fill:#0014f5;stroke:#0014f5;" x="181.804147" xlink:href="#C0_0_bcfa99e7d2" y="112.654702"/>
    </g>
    <g clip-path="url(#p532e46c990)">
     <use style="fill:#001af2;stroke:#001af2;" x="170.93308" xlink:href="#C0_0_bcfa99e7d2" y="113.802264"/>
    </g>
    <g clip-path="url(#p532e46c990)">
     <use style="fill:#001ff0;stroke:#001ff0;" x="160.17499" xlink:href="#C0_0_bcfa99e7d2" y="122.52481"/>
    </g>
    <g clip-path="url(#p532e46c990)">
     <use style="fill:#0024ed;stroke:#0024ed;" x="149.249232" xlink:href="#C0_0_bcfa99e7d2" y="124.154114"/>
    </g>
    <g clip-path="url(#p532e46c990)">
     <use style="fill:#0029eb;stroke:#0029eb;" x="139.941705" xlink:href="#C0_0_bcfa99e7d2" y="119.365388"/>
    </g>
    <g clip-path="url(#p532e46c990)">
     <use style="fill:#002fe8;stroke:#002fe8;" x="130.496727" xlink:href="#C0_0_bcfa99e7d2" y="118.798577"/>
    </g>
    <g clip-path="url(#p532e46c990)">
     <use style="fill:#0034e5;stroke:#0034e5;" x="129.33581" xlink:href="#C0_0_bcfa99e7d2" y="116.841081"/>
    </g>
    <g clip-path="url(#p532e46c990)">
     <use style="fill:#0039e2;stroke:#0039e2;" x="136.387692" xlink:href="#C0_0_bcfa99e7d2" y="125.714154"/>
    </g>
    <g clip-path="url(#p532e46c990)">
     <use style="fill:#003ee0;stroke:#003ee0;" x="137.982649" xlink:href="#C0_0_bcfa99e7d2" y="117.831341"/>
    </g>
    <g clip-path="url(#p532e46c990)">
     <use style="fill:#0043de;stroke:#0043de;" x="130.719599" xlink:href="#C0_0_bcfa99e7d2" y="110.449329"/>
    </g>
    <g clip-path="url(#p532e46c990)">
     <use style="fill:#0049db;stroke:#0049db;" x="132.058928" xlink:href="#C0_0_bcfa99e7d2" y="120.125914"/>
    </g>
    <g clip-path="url(#p532e46c990)">
     <use style="fill:#004ed8;stroke:#004ed8;" x="129.786634" xlink:href="#C0_0_bcfa99e7d2" y="122.158801"/>
    </g>
    <g clip-path="url(#p532e46c990)">
     <use style="fill:#0053d6;stroke:#0053d6;" x="138.729" xlink:href="#C0_0_bcfa99e7d2" y="114.655074"/>
    </g>
    <g clip-path="url(#p532e46c990)">
     <use style="fill:#0058d3;stroke:#0058d3;" x="131.352251" xlink:href="#C0_0_bcfa99e7d2" y="117.49848"/>
    </g>
    <g clip-path="url(#p532e46c990)">
     <use style="fill:#005ed0;stroke:#005ed0;" x="134.976876" xlink:href="#C0_0_bcfa99e7d2" y="119.874337"/>
    </g>
    <g clip-path="url(#p532e46c990)">
     <use style="fill:#0063ce;stroke:#0063ce;" x="132.012193" xlink:href="#C0_0_bcfa99e7d2" y="114.706763"/>
    </g>
    <g clip-path="url(#p532e46c990)">
     <use style="fill:#0068cb;stroke:#0068cb;" x="135.356024" xlink:href="#C0_0_bcfa99e7d2" y="119.875689"/>
    </g>
    <g clip-path="url(#p532e46c990)">
     <use style="fill:#006dc8;stroke:#006dc8;" x="127.901916" xlink:href="#C0_0_bcfa99e7d2" y="118.504006"/>
    </g>
    <g clip-path="url(#p532e46c990)">
     <use style="fill:#0072c6;stroke:#0072c6;" x="133.394644" xlink:href="#C0_0_bcfa99e7d2" y="119.624006"/>
    </g>
    <g clip-path="url(#p532e46c990)">
     <use style="fill:#0078c3;stroke:#0078c3;" x="137.19673" xlink:href="#C0_0_bcfa99e7d2" y="127.990832"/>
    </g>
    <g clip-path="url(#p532e46c990)">
     <use style="fill:#007dc0;stroke:#007dc0;" x="138.006058" xlink:href="#C0_0_bcfa99e7d2" y="118.748031"/>
    </g>
    <g clip-path="url(#p532e46c990)">
     <use style="fill:#0082be;stroke:#0082be;" x="129.935382" xlink:href="#C0_0_bcfa99e7d2" y="122.62628"/>
    </g>
    <g clip-path="url(#p532e46c990)">
     <use style="fill:#0087bc;stroke:#0087bc;" x="131.096711" xlink:href="#C0_0_bcfa99e7d2" y="121.570616"/>
    </g>
    <g clip-path="url(#p532e46c990)">
     <use style="fill:#008db8;stroke:#008db8;" x="136.076983" xlink:href="#C0_0_bcfa99e7d2" y="123.038477"/>
    </g>
    <g clip-path="url(#p532e46c990)">
     <use style="fill:#0092b6;stroke:#0092b6;" x="130.543977" xlink:href="#C0_0_bcfa99e7d2" y="117.349757"/>
    </g>
    <g clip-path="url(#p532e46c990)">
     <use style="fill:#0097b3;stroke:#0097b3;" x="126.669957" xlink:href="#C0_0_bcfa99e7d2" y="116.616585"/>
    </g>
    <g clip-path="url(#p532e46c990)">
     <use style="fill:#009cb1;stroke:#009cb1;" x="133.980255" xlink:href="#C0_0_bcfa99e7d2" y="120.684736"/>
    </g>
    <g clip-path="url(#p532e46c990)">
     <use style="fill:#00a1ae;stroke:#00a1ae;" x="129.133901" xlink:href="#C0_0_bcfa99e7d2" y="126.443317"/>
    </g>
    <g clip-path="url(#p532e46c990)">
     <use style="fill:#00a7ac;stroke:#00a7ac;" x="136.322969" xlink:href="#C0_0_bcfa99e7d2" y="119.400003"/>
    </g>
    <g clip-path="url(#p532e46c990)">
     <use style="fill:#00aca9;stroke:#00aca9;" x="134.392544" xlink:href="#C0_0_bcfa99e7d2" y="119.034426"/>
    </g>
    <g clip-path="url(#p532e46c990)">
     <use style="fill:#00b1a6;stroke:#00b1a6;" x="133.47862" xlink:href="#C0_0_bcfa99e7d2" y="122.849116"/>
    </g>
    <g clip-path="url(#p532e46c990)">
     <use style="fill:#00b6a4;stroke:#00b6a4;" x="133.22407" xlink:href="#C0_0_bcfa99e7d2" y="120.986758"/>
    </g>
    <g clip-path="url(#p532e46c990)">
     <use style="fill:#00bca1;stroke:#00bca1;" x="140.446967" xlink:href="#C0_0_bcfa99e7d2" y="120.353392"/>
    </g>
    <g clip-path="url(#p532e46c990)">
     <use style="fill:#00c19e;stroke:#00c19e;" x="131.264127" xlink:href="#C0_0_bcfa99e7d2" y="126.248562"/>
    </g>
    <g clip-path="url(#p532e46c990)">
     <use style="fill:#00c69c;stroke:#00c69c;" x="135.226124" xlink:href="#C0_0_bcfa99e7d2" y="116.533743"/>
    </g>
    <g clip-path="url(#p532e46c990)">
     <use style="fill:#00cb9a;stroke:#00cb9a;" x="138.019191" xlink:href="#C0_0_bcfa99e7d2" y="118.563764"/>
    </g>
    <g clip-path="url(#p532e46c990)">
     <use style="fill:#00d097;stroke:#00d097;" x="133.583582" xlink:href="#C0_0_bcfa99e7d2" y="116.591118"/>
    </g>
    <g clip-path="url(#p532e46c990)">
     <use style="fill:#00d694;stroke:#00d694;" x="128.776623" xlink:href="#C0_0_bcfa99e7d2" y="116.994353"/>
    </g>
    <g clip-path="url(#p532e46c990)">
     <use style="fill:#00db92;stroke:#00db92;" x="139.088255" xlink:href="#C0_0_bcfa99e7d2" y="118.507877"/>
    </g>
    <g clip-path="url(#p532e46c990)">
     <use style="fill:#00e08f;stroke:#00e08f;" x="135.978707" xlink:href="#C0_0_bcfa99e7d2" y="121.388487"/>
    </g>
    <g clip-path="url(#p532e46c990)">
     <use style="fill:#00e58c;stroke:#00e58c;" x="134.654994" xlink:href="#C0_0_bcfa99e7d2" y="118.434583"/>
    </g>
    <g clip-path="url(#p532e46c990)">
     <use style="fill:#00eb8a;stroke:#00eb8a;" x="134.1121" xlink:href="#C0_0_bcfa99e7d2" y="117.97711"/>
    </g>
    <g clip-path="url(#p532e46c990)">
     <use style="fill:#00f087;stroke:#00f087;" x="130.846264" xlink:href="#C0_0_bcfa99e7d2" y="123.233484"/>
    </g>
    <g clip-path="url(#p532e46c990)">
     <use style="fill:#00f584;stroke:#00f584;" x="135.203998" xlink:href="#C0_0_bcfa99e7d2" y="121.029836"/>
    </g>
    <g clip-path="url(#p532e46c990)">
     <use style="fill:#00fa82;stroke:#00fa82;" x="134.803869" xlink:href="#C0_0_bcfa99e7d2" y="127.997064"/>
    </g>
    <g clip-path="url(#p532e46c990)">
     <use style="fill:#00ff80;stroke:#00ff80;" x="136.722906" xlink:href="#C0_0_bcfa99e7d2" y="125.96838"/>
    </g>
   </g>
   <g id="PathCollection_2">
    <defs>
     <path d="M 0 2.738613 
C 0.726289 2.738613 1.422928 2.450055 1.936492 1.936492 
C 2.450055 1.422928 2.738613 0.726289 2.738613 0 
C 2.738613 -0.726289 2.450055 -1.422928 1.936492 -1.936492 
C 1.422928 -2.450055 0.726289 -2.738613 0 -2.738613 
C -0.726289 -2.738613 -1.422928 -2.450055 -1.936492 -1.936492 
C -2.450055 -1.422928 -2.738613 -0.726289 -2.738613 0 
C -2.738613 0.726289 -2.450055 1.422928 -1.936492 1.936492 
C -1.422928 2.450055 -0.726289 2.738613 0 2.738613 
z
" id="m65bc69a08d" style="stroke:#696969;"/>
    </defs>
    <g clip-path="url(#p532e46c990)">
     <use style="fill:#696969;stroke:#696969;" x="139.790459" xlink:href="#m65bc69a08d" y="119.689273"/>
    </g>
   </g>
   <g id="patch_3">
    <path clip-path="url(#p532e46c990)" d="M 236.16 285.408 
C 265.56572 285.408 293.771016 273.724984 314.564 252.932 
C 335.356984 232.139016 347.04 203.93372 347.04 174.528 
C 347.04 145.12228 335.356984 116.916984 314.564 96.124 
C 293.771016 75.331016 265.56572 63.648 236.16 63.648 
C 206.75428 63.648 178.548984 75.331016 157.756 96.124 
C 136.963016 116.916984 125.28 145.12228 125.28 174.528 
C 125.28 203.93372 136.963016 232.139016 157.756 252.932 
C 178.548984 273.724984 206.75428 285.408 236.16 285.408 
z
" style="fill:none;stroke:#696969;stroke-linejoin:miter;"/>
   </g>
   <g id="matplotlib.axis_1">
    <g id="xtick_1">
     <g id="line2d_1">
      <defs>
       <path d="M 0 0 
L 0 3.5 
" id="mf31a6a8494" style="stroke:#000000;stroke-width:0.8;"/>
      </defs>
      <g>
       <use style="stroke:#000000;stroke-width:0.8;" x="125.28" xlink:href="#mf31a6a8494" y="307.584"/>
      </g>
     </g>
     <g id="text_1">
      <!-- −0.10 -->
      <defs>
       <path d="M 10.59375 35.5 
L 73.1875 35.5 
L 73.1875 27.203125 
L 10.59375 27.203125 
z
" id="DejaVuSans-8722"/>
       <path d="M 31.78125 66.40625 
Q 24.171875 66.40625 20.328125 58.90625 
Q 16.5 51.421875 16.5 36.375 
Q 16.5 21.390625 20.328125 13.890625 
Q 24.171875 6.390625 31.78125 6.390625 
Q 39.453125 6.390625 43.28125 13.890625 
Q 47.125 21.390625 47.125 36.375 
Q 47.125 51.421875 43.28125 58.90625 
Q 39.453125 66.40625 31.78125 66.40625 
z
M 31.78125 74.21875 
Q 44.046875 74.21875 50.515625 64.515625 
Q 56.984375 54.828125 56.984375 36.375 
Q 56.984375 17.96875 50.515625 8.265625 
Q 44.046875 -1.421875 31.78125 -1.421875 
Q 19.53125 -1.421875 13.0625 8.265625 
Q 6.59375 17.96875 6.59375 36.375 
Q 6.59375 54.828125 13.0625 64.515625 
Q 19.53125 74.21875 31.78125 74.21875 
z
" id="DejaVuSans-48"/>
       <path d="M 10.6875 12.40625 
L 21 12.40625 
L 21 0 
L 10.6875 0 
z
" id="DejaVuSans-46"/>
       <path d="M 12.40625 8.296875 
L 28.515625 8.296875 
L 28.515625 63.921875 
L 10.984375 60.40625 
L 10.984375 69.390625 
L 28.421875 72.90625 
L 38.28125 72.90625 
L 38.28125 8.296875 
L 54.390625 8.296875 
L 54.390625 0 
L 12.40625 0 
z
" id="DejaVuSans-49"/>
      </defs>
      <g transform="translate(109.957344 322.182437)scale(0.1 -0.1)">
       <use xlink:href="#DejaVuSans-8722"/>
       <use x="83.789062" xlink:href="#DejaVuSans-48"/>
       <use x="147.412109" xlink:href="#DejaVuSans-46"/>
       <use x="179.199219" xlink:href="#DejaVuSans-49"/>
       <use x="242.822266" xlink:href="#DejaVuSans-48"/>
      </g>
     </g>
    </g>
    <g id="xtick_2">
     <g id="line2d_2">
      <g>
       <use style="stroke:#000000;stroke-width:0.8;" x="180.72" xlink:href="#mf31a6a8494" y="307.584"/>
      </g>
     </g>
     <g id="text_2">
      <!-- −0.05 -->
      <defs>
       <path d="M 10.796875 72.90625 
L 49.515625 72.90625 
L 49.515625 64.59375 
L 19.828125 64.59375 
L 19.828125 46.734375 
Q 21.96875 47.46875 24.109375 47.828125 
Q 26.265625 48.1875 28.421875 48.1875 
Q 40.625 48.1875 47.75 41.5 
Q 54.890625 34.8125 54.890625 23.390625 
Q 54.890625 11.625 47.5625 5.09375 
Q 40.234375 -1.421875 26.90625 -1.421875 
Q 22.3125 -1.421875 17.546875 -0.640625 
Q 12.796875 0.140625 7.71875 1.703125 
L 7.71875 11.625 
Q 12.109375 9.234375 16.796875 8.0625 
Q 21.484375 6.890625 26.703125 6.890625 
Q 35.15625 6.890625 40.078125 11.328125 
Q 45.015625 15.765625 45.015625 23.390625 
Q 45.015625 31 40.078125 35.4375 
Q 35.15625 39.890625 26.703125 39.890625 
Q 22.75 39.890625 18.8125 39.015625 
Q 14.890625 38.140625 10.796875 36.28125 
z
" id="DejaVuSans-53"/>
      </defs>
      <g transform="translate(165.397344 322.182437)scale(0.1 -0.1)">
       <use xlink:href="#DejaVuSans-8722"/>
       <use x="83.789062" xlink:href="#DejaVuSans-48"/>
       <use x="147.412109" xlink:href="#DejaVuSans-46"/>
       <use x="179.199219" xlink:href="#DejaVuSans-48"/>
       <use x="242.822266" xlink:href="#DejaVuSans-53"/>
      </g>
     </g>
    </g>
    <g id="xtick_3">
     <g id="line2d_3">
      <g>
       <use style="stroke:#000000;stroke-width:0.8;" x="236.16" xlink:href="#mf31a6a8494" y="307.584"/>
      </g>
     </g>
     <g id="text_3">
      <!-- 0.00 -->
      <g transform="translate(225.027188 322.182437)scale(0.1 -0.1)">
       <use xlink:href="#DejaVuSans-48"/>
       <use x="63.623047" xlink:href="#DejaVuSans-46"/>
       <use x="95.410156" xlink:href="#DejaVuSans-48"/>
       <use x="159.033203" xlink:href="#DejaVuSans-48"/>
      </g>
     </g>
    </g>
    <g id="xtick_4">
     <g id="line2d_4">
      <g>
       <use style="stroke:#000000;stroke-width:0.8;" x="291.6" xlink:href="#mf31a6a8494" y="307.584"/>
      </g>
     </g>
     <g id="text_4">
      <!-- 0.05 -->
      <g transform="translate(280.467188 322.182437)scale(0.1 -0.1)">
       <use xlink:href="#DejaVuSans-48"/>
       <use x="63.623047" xlink:href="#DejaVuSans-46"/>
       <use x="95.410156" xlink:href="#DejaVuSans-48"/>
       <use x="159.033203" xlink:href="#DejaVuSans-53"/>
      </g>
     </g>
    </g>
    <g id="xtick_5">
     <g id="line2d_5">
      <g>
       <use style="stroke:#000000;stroke-width:0.8;" x="347.04" xlink:href="#mf31a6a8494" y="307.584"/>
      </g>
     </g>
     <g id="text_5">
      <!-- 0.10 -->
      <g transform="translate(335.907187 322.182437)scale(0.1 -0.1)">
       <use xlink:href="#DejaVuSans-48"/>
       <use x="63.623047" xlink:href="#DejaVuSans-46"/>
       <use x="95.410156" xlink:href="#DejaVuSans-49"/>
       <use x="159.033203" xlink:href="#DejaVuSans-48"/>
      </g>
     </g>
    </g>
   </g>
   <g id="matplotlib.axis_2">
    <g id="ytick_1">
     <g id="line2d_6">
      <defs>
       <path d="M 0 0 
L -3.5 0 
" id="m1f6746b49c" style="stroke:#000000;stroke-width:0.8;"/>
      </defs>
      <g>
       <use style="stroke:#000000;stroke-width:0.8;" x="103.104" xlink:href="#m1f6746b49c" y="285.408"/>
      </g>
     </g>
     <g id="text_6">
      <!-- −0.15 -->
      <g transform="translate(65.458688 289.207219)scale(0.1 -0.1)">
       <use xlink:href="#DejaVuSans-8722"/>
       <use x="83.789062" xlink:href="#DejaVuSans-48"/>
       <use x="147.412109" xlink:href="#DejaVuSans-46"/>
       <use x="179.199219" xlink:href="#DejaVuSans-49"/>
       <use x="242.822266" xlink:href="#DejaVuSans-53"/>
      </g>
     </g>
    </g>
    <g id="ytick_2">
     <g id="line2d_7">
      <g>
       <use style="stroke:#000000;stroke-width:0.8;" x="103.104" xlink:href="#m1f6746b49c" y="229.968"/>
      </g>
     </g>
     <g id="text_7">
      <!-- −0.10 -->
      <g transform="translate(65.458688 233.767219)scale(0.1 -0.1)">
       <use xlink:href="#DejaVuSans-8722"/>
       <use x="83.789062" xlink:href="#DejaVuSans-48"/>
       <use x="147.412109" xlink:href="#DejaVuSans-46"/>
       <use x="179.199219" xlink:href="#DejaVuSans-49"/>
       <use x="242.822266" xlink:href="#DejaVuSans-48"/>
      </g>
     </g>
    </g>
    <g id="ytick_3">
     <g id="line2d_8">
      <g>
       <use style="stroke:#000000;stroke-width:0.8;" x="103.104" xlink:href="#m1f6746b49c" y="174.528"/>
      </g>
     </g>
     <g id="text_8">
      <!-- −0.05 -->
      <g transform="translate(65.458688 178.327219)scale(0.1 -0.1)">
       <use xlink:href="#DejaVuSans-8722"/>
       <use x="83.789062" xlink:href="#DejaVuSans-48"/>
       <use x="147.412109" xlink:href="#DejaVuSans-46"/>
       <use x="179.199219" xlink:href="#DejaVuSans-48"/>
       <use x="242.822266" xlink:href="#DejaVuSans-53"/>
      </g>
     </g>
    </g>
    <g id="ytick_4">
     <g id="line2d_9">
      <g>
       <use style="stroke:#000000;stroke-width:0.8;" x="103.104" xlink:href="#m1f6746b49c" y="119.088"/>
      </g>
     </g>
     <g id="text_9">
      <!-- 0.00 -->
      <g transform="translate(73.838375 122.887219)scale(0.1 -0.1)">
       <use xlink:href="#DejaVuSans-48"/>
       <use x="63.623047" xlink:href="#DejaVuSans-46"/>
       <use x="95.410156" xlink:href="#DejaVuSans-48"/>
       <use x="159.033203" xlink:href="#DejaVuSans-48"/>
      </g>
     </g>
    </g>
    <g id="ytick_5">
     <g id="line2d_10">
      <g>
       <use style="stroke:#000000;stroke-width:0.8;" x="103.104" xlink:href="#m1f6746b49c" y="63.648"/>
      </g>
     </g>
     <g id="text_10">
      <!-- 0.05 -->
      <g transform="translate(73.838375 67.447219)scale(0.1 -0.1)">
       <use xlink:href="#DejaVuSans-48"/>
       <use x="63.623047" xlink:href="#DejaVuSans-46"/>
       <use x="95.410156" xlink:href="#DejaVuSans-48"/>
       <use x="159.033203" xlink:href="#DejaVuSans-53"/>
      </g>
     </g>
    </g>
   </g>
   <g id="patch_4">
    <path d="M 103.104 307.584 
L 103.104 41.472 
" style="fill:none;stroke:#000000;stroke-linecap:square;stroke-linejoin:miter;stroke-width:0.8;"/>
   </g>
   <g id="patch_5">
    <path d="M 369.216 307.584 
L 369.216 41.472 
" style="fill:none;stroke:#000000;stroke-linecap:square;stroke-linejoin:miter;stroke-width:0.8;"/>
   </g>
   <g id="patch_6">
    <path d="M 103.104 307.584 
L 369.216 307.584 
" style="fill:none;stroke:#000000;stroke-linecap:square;stroke-linejoin:miter;stroke-width:0.8;"/>
   </g>
   <g id="patch_7">
    <path d="M 103.104 41.472 
L 369.216 41.472 
" style="fill:none;stroke:#000000;stroke-linecap:square;stroke-linejoin:miter;stroke-width:0.8;"/>
   </g>
  </g>
 </g>
 <defs>
  <clipPath id="p532e46c990">
   <rect height="266.112" width="266.112" x="103.104" y="41.472"/>
  </clipPath>
 </defs>
</svg>
