<?xml version="1.0" encoding="utf-8" standalone="no"?>
<!DOCTYPE svg PUBLIC "-//W3C//DTD SVG 1.1//EN"
  "http://www.w3.org/Graphics/SVG/1.1/DTD/svg11.dtd">
<!-- Created with matplotlib (https://matplotlib.org/) -->
<svg height="345.6pt" version="1.1" viewBox="0 0 460.8 345.6" width="460.8pt" xmlns="http://www.w3.org/2000/svg" xmlns:xlink="http://www.w3.org/1999/xlink">
 <defs>
  <style type="text/css">
*{stroke-linecap:butt;stroke-linejoin:round;}
  </style>
 </defs>
 <g id="figure_1">
  <g id="patch_1">
   <path d="M 0 345.6 
L 460.8 345.6 
L 460.8 0 
L 0 0 
z
" style="fill:#ffffff;"/>
  </g>
  <g id="axes_1">
   <g id="patch_2">
    <path d="M 103.104 307.584 
L 369.216 307.584 
L 369.216 41.472 
L 103.104 41.472 
z
" style="fill:#ffffff;"/>
   </g>
   <g id="PathCollection_1">
    <defs>
     <path d="M 0 2.236068 
C 0.593012 2.236068 1.161816 2.000462 1.581139 1.581139 
C 2.000462 1.161816 2.236068 0.593012 2.236068 0 
C 2.236068 -0.593012 2.000462 -1.161816 1.581139 -1.581139 
C 1.161816 -2.000462 0.593012 -2.236068 0 -2.236068 
C -0.593012 -2.236068 -1.161816 -2.000462 -1.581139 -1.581139 
C -2.000462 -1.161816 -2.236068 -0.593012 -2.236068 0 
C -2.236068 0.593012 -2.000462 1.161816 -1.581139 1.581139 
C -1.161816 2.000462 -0.593012 2.236068 0 2.236068 
z
" id="C0_0_d4e7438413"/>
    </defs>
    <g clip-path="url(#pede28ee3c3)">
     <use style="fill:#0000ff;stroke:#0000ff;" x="246.211062" xlink:href="#C0_0_d4e7438413" y="108.745523"/>
    </g>
    <g clip-path="url(#pede28ee3c3)">
     <use style="fill:#0005fc;stroke:#0005fc;" x="257.200352" xlink:href="#C0_0_d4e7438413" y="99.380604"/>
    </g>
    <g clip-path="url(#pede28ee3c3)">
     <use style="fill:#000afa;stroke:#000afa;" x="268.037383" xlink:href="#C0_0_d4e7438413" y="89.78777"/>
    </g>
    <g clip-path="url(#pede28ee3c3)">
     <use style="fill:#000ff8;stroke:#000ff8;" x="278.818722" xlink:href="#C0_0_d4e7438413" y="82.765182"/>
    </g>
    <g clip-path="url(#pede28ee3c3)">
     <use style="fill:#0014f5;stroke:#0014f5;" x="289.611896" xlink:href="#C0_0_d4e7438413" y="88.490704"/>
    </g>
    <g clip-path="url(#pede28ee3c3)">
     <use style="fill:#001af2;stroke:#001af2;" x="297.284419" xlink:href="#C0_0_d4e7438413" y="86.697859"/>
    </g>
    <g clip-path="url(#pede28ee3c3)">
     <use style="fill:#001ff0;stroke:#001ff0;" x="299.177301" xlink:href="#C0_0_d4e7438413" y="91.321152"/>
    </g>
    <g clip-path="url(#pede28ee3c3)">
     <use style="fill:#0024ed;stroke:#0024ed;" x="298.661731" xlink:href="#C0_0_d4e7438413" y="91.344954"/>
    </g>
    <g clip-path="url(#pede28ee3c3)">
     <use style="fill:#0029eb;stroke:#0029eb;" x="301.95617" xlink:href="#C0_0_d4e7438413" y="91.221334"/>
    </g>
    <g clip-path="url(#pede28ee3c3)">
     <use style="fill:#002fe8;stroke:#002fe8;" x="294.575731" xlink:href="#C0_0_d4e7438413" y="87.516319"/>
    </g>
    <g clip-path="url(#pede28ee3c3)">
     <use style="fill:#0034e5;stroke:#0034e5;" x="295.661846" xlink:href="#C0_0_d4e7438413" y="89.900441"/>
    </g>
    <g clip-path="url(#pede28ee3c3)">
     <use style="fill:#0039e2;stroke:#0039e2;" x="301.308473" xlink:href="#C0_0_d4e7438413" y="91.305687"/>
    </g>
    <g clip-path="url(#pede28ee3c3)">
     <use style="fill:#003ee0;stroke:#003ee0;" x="306.192443" xlink:href="#C0_0_d4e7438413" y="90.829499"/>
    </g>
    <g clip-path="url(#pede28ee3c3)">
     <use style="fill:#0043de;stroke:#0043de;" x="302.311908" xlink:href="#C0_0_d4e7438413" y="89.453204"/>
    </g>
    <g clip-path="url(#pede28ee3c3)">
     <use style="fill:#0049db;stroke:#0049db;" x="299.283438" xlink:href="#C0_0_d4e7438413" y="89.026041"/>
    </g>
    <g clip-path="url(#pede28ee3c3)">
     <use style="fill:#004ed8;stroke:#004ed8;" x="297.549767" xlink:href="#C0_0_d4e7438413" y="87.603224"/>
    </g>
    <g clip-path="url(#pede28ee3c3)">
     <use style="fill:#0053d6;stroke:#0053d6;" x="302.23146" xlink:href="#C0_0_d4e7438413" y="84.839611"/>
    </g>
    <g clip-path="url(#pede28ee3c3)">
     <use style="fill:#0058d3;stroke:#0058d3;" x="304.739017" xlink:href="#C0_0_d4e7438413" y="94.133993"/>
    </g>
    <g clip-path="url(#pede28ee3c3)">
     <use style="fill:#005ed0;stroke:#005ed0;" x="308.637207" xlink:href="#C0_0_d4e7438413" y="90.260072"/>
    </g>
    <g clip-path="url(#pede28ee3c3)">
     <use style="fill:#0063ce;stroke:#0063ce;" x="303.13183" xlink:href="#C0_0_d4e7438413" y="86.696931"/>
    </g>
    <g clip-path="url(#pede28ee3c3)">
     <use style="fill:#0068cb;stroke:#0068cb;" x="300.024967" xlink:href="#C0_0_d4e7438413" y="86.476831"/>
    </g>
    <g clip-path="url(#pede28ee3c3)">
     <use style="fill:#006dc8;stroke:#006dc8;" x="303.390982" xlink:href="#C0_0_d4e7438413" y="89.049665"/>
    </g>
    <g clip-path="url(#pede28ee3c3)">
     <use style="fill:#0072c6;stroke:#0072c6;" x="294.969505" xlink:href="#C0_0_d4e7438413" y="92.576366"/>
    </g>
    <g clip-path="url(#pede28ee3c3)">
     <use style="fill:#0078c3;stroke:#0078c3;" x="301.691759" xlink:href="#C0_0_d4e7438413" y="89.29593"/>
    </g>
    <g clip-path="url(#pede28ee3c3)">
     <use style="fill:#007dc0;stroke:#007dc0;" x="305.486422" xlink:href="#C0_0_d4e7438413" y="91.649558"/>
    </g>
    <g clip-path="url(#pede28ee3c3)">
     <use style="fill:#0082be;stroke:#0082be;" x="299.532451" xlink:href="#C0_0_d4e7438413" y="89.793934"/>
    </g>
    <g clip-path="url(#pede28ee3c3)">
     <use style="fill:#0087bc;stroke:#0087bc;" x="307.069841" xlink:href="#C0_0_d4e7438413" y="85.644279"/>
    </g>
    <g clip-path="url(#pede28ee3c3)">
     <use style="fill:#008db8;stroke:#008db8;" x="300.991754" xlink:href="#C0_0_d4e7438413" y="86.310155"/>
    </g>
    <g clip-path="url(#pede28ee3c3)">
     <use style="fill:#0092b6;stroke:#0092b6;" x="300.151087" xlink:href="#C0_0_d4e7438413" y="92.361024"/>
    </g>
    <g clip-path="url(#pede28ee3c3)">
     <use style="fill:#0097b3;stroke:#0097b3;" x="303.152555" xlink:href="#C0_0_d4e7438413" y="87.757989"/>
    </g>
    <g clip-path="url(#pede28ee3c3)">
     <use style="fill:#009cb1;stroke:#009cb1;" x="298.169939" xlink:href="#C0_0_d4e7438413" y="93.053806"/>
    </g>
    <g clip-path="url(#pede28ee3c3)">
     <use style="fill:#00a1ae;stroke:#00a1ae;" x="299.619183" xlink:href="#C0_0_d4e7438413" y="92.916888"/>
    </g>
    <g clip-path="url(#pede28ee3c3)">
     <use style="fill:#00a7ac;stroke:#00a7ac;" x="303.512801" xlink:href="#C0_0_d4e7438413" y="89.338956"/>
    </g>
    <g clip-path="url(#pede28ee3c3)">
     <use style="fill:#00aca9;stroke:#00aca9;" x="306.436363" xlink:href="#C0_0_d4e7438413" y="94.399609"/>
    </g>
    <g clip-path="url(#pede28ee3c3)">
     <use style="fill:#00b1a6;stroke:#00b1a6;" x="300.839354" xlink:href="#C0_0_d4e7438413" y="95.081943"/>
    </g>
    <g clip-path="url(#pede28ee3c3)">
     <use style="fill:#00b6a4;stroke:#00b6a4;" x="304.61062" xlink:href="#C0_0_d4e7438413" y="94.625307"/>
    </g>
    <g clip-path="url(#pede28ee3c3)">
     <use style="fill:#00bca1;stroke:#00bca1;" x="301.352292" xlink:href="#C0_0_d4e7438413" y="98.847347"/>
    </g>
    <g clip-path="url(#pede28ee3c3)">
     <use style="fill:#00c19e;stroke:#00c19e;" x="305.510205" xlink:href="#C0_0_d4e7438413" y="90.868005"/>
    </g>
    <g clip-path="url(#pede28ee3c3)">
     <use style="fill:#00c69c;stroke:#00c69c;" x="302.919979" xlink:href="#C0_0_d4e7438413" y="96.859629"/>
    </g>
    <g clip-path="url(#pede28ee3c3)">
     <use style="fill:#00cb9a;stroke:#00cb9a;" x="301.988546" xlink:href="#C0_0_d4e7438413" y="95.191276"/>
    </g>
    <g clip-path="url(#pede28ee3c3)">
     <use style="fill:#00d097;stroke:#00d097;" x="307.275843" xlink:href="#C0_0_d4e7438413" y="92.358899"/>
    </g>
    <g clip-path="url(#pede28ee3c3)">
     <use style="fill:#00d694;stroke:#00d694;" x="300.076747" xlink:href="#C0_0_d4e7438413" y="92.430715"/>
    </g>
    <g clip-path="url(#pede28ee3c3)">
     <use style="fill:#00db92;stroke:#00db92;" x="303.608956" xlink:href="#C0_0_d4e7438413" y="95.296114"/>
    </g>
    <g clip-path="url(#pede28ee3c3)">
     <use style="fill:#00e08f;stroke:#00e08f;" x="302.933511" xlink:href="#C0_0_d4e7438413" y="99.509496"/>
    </g>
    <g clip-path="url(#pede28ee3c3)">
     <use style="fill:#00e58c;stroke:#00e58c;" x="302.527564" xlink:href="#C0_0_d4e7438413" y="94.940211"/>
    </g>
    <g clip-path="url(#pede28ee3c3)">
     <use style="fill:#00eb8a;stroke:#00eb8a;" x="300.61839" xlink:href="#C0_0_d4e7438413" y="94.388702"/>
    </g>
    <g clip-path="url(#pede28ee3c3)">
     <use style="fill:#00f087;stroke:#00f087;" x="300.422854" xlink:href="#C0_0_d4e7438413" y="94.184507"/>
    </g>
    <g clip-path="url(#pede28ee3c3)">
     <use style="fill:#00f584;stroke:#00f584;" x="300.624999" xlink:href="#C0_0_d4e7438413" y="90.737112"/>
    </g>
    <g clip-path="url(#pede28ee3c3)">
     <use style="fill:#00fa82;stroke:#00fa82;" x="302.879798" xlink:href="#C0_0_d4e7438413" y="90.823751"/>
    </g>
    <g clip-path="url(#pede28ee3c3)">
     <use style="fill:#00ff80;stroke:#00ff80;" x="298.884947" xlink:href="#C0_0_d4e7438413" y="94.735421"/>
    </g>
   </g>
   <g id="PathCollection_2">
    <defs>
     <path d="M 0 2.738613 
C 0.726289 2.738613 1.422928 2.450055 1.936492 1.936492 
C 2.450055 1.422928 2.738613 0.726289 2.738613 0 
C 2.738613 -0.726289 2.450055 -1.422928 1.936492 -1.936492 
C 1.422928 -2.450055 0.726289 -2.738613 0 -2.738613 
C -0.726289 -2.738613 -1.422928 -2.450055 -1.936492 -1.936492 
C -2.450055 -1.422928 -2.738613 -0.726289 -2.738613 0 
C -2.738613 0.726289 -2.450055 1.422928 -1.936492 1.936492 
C -1.422928 2.450055 -0.726289 2.738613 0 2.738613 
z
" id="m321f14f7f4" style="stroke:#696969;"/>
    </defs>
    <g clip-path="url(#pede28ee3c3)">
     <use style="fill:#696969;stroke:#696969;" x="309.134583" xlink:href="#m321f14f7f4" y="91.046956"/>
    </g>
   </g>
   <g id="patch_3">
    <path clip-path="url(#pede28ee3c3)" d="M 236.16 285.408 
C 265.56572 285.408 293.771016 273.724984 314.564 252.932 
C 335.356984 232.139016 347.04 203.93372 347.04 174.528 
C 347.04 145.12228 335.356984 116.916984 314.564 96.124 
C 293.771016 75.331016 265.56572 63.648 236.16 63.648 
C 206.75428 63.648 178.548984 75.331016 157.756 96.124 
C 136.963016 116.916984 125.28 145.12228 125.28 174.528 
C 125.28 203.93372 136.963016 232.139016 157.756 252.932 
C 178.548984 273.724984 206.75428 285.408 236.16 285.408 
z
" style="fill:none;stroke:#696969;stroke-linejoin:miter;"/>
   </g>
   <g id="matplotlib.axis_1">
    <g id="xtick_1">
     <g id="line2d_1">
      <defs>
       <path d="M 0 0 
L 0 3.5 
" id="mb5a94146e6" style="stroke:#000000;stroke-width:0.8;"/>
      </defs>
      <g>
       <use style="stroke:#000000;stroke-width:0.8;" x="125.28" xlink:href="#mb5a94146e6" y="307.584"/>
      </g>
     </g>
     <g id="text_1">
      <!-- −0.10 -->
      <defs>
       <path d="M 10.59375 35.5 
L 73.1875 35.5 
L 73.1875 27.203125 
L 10.59375 27.203125 
z
" id="DejaVuSans-8722"/>
       <path d="M 31.78125 66.40625 
Q 24.171875 66.40625 20.328125 58.90625 
Q 16.5 51.421875 16.5 36.375 
Q 16.5 21.390625 20.328125 13.890625 
Q 24.171875 6.390625 31.78125 6.390625 
Q 39.453125 6.390625 43.28125 13.890625 
Q 47.125 21.390625 47.125 36.375 
Q 47.125 51.421875 43.28125 58.90625 
Q 39.453125 66.40625 31.78125 66.40625 
z
M 31.78125 74.21875 
Q 44.046875 74.21875 50.515625 64.515625 
Q 56.984375 54.828125 56.984375 36.375 
Q 56.984375 17.96875 50.515625 8.265625 
Q 44.046875 -1.421875 31.78125 -1.421875 
Q 19.53125 -1.421875 13.0625 8.265625 
Q 6.59375 17.96875 6.59375 36.375 
Q 6.59375 54.828125 13.0625 64.515625 
Q 19.53125 74.21875 31.78125 74.21875 
z
" id="DejaVuSans-48"/>
       <path d="M 10.6875 12.40625 
L 21 12.40625 
L 21 0 
L 10.6875 0 
z
" id="DejaVuSans-46"/>
       <path d="M 12.40625 8.296875 
L 28.515625 8.296875 
L 28.515625 63.921875 
L 10.984375 60.40625 
L 10.984375 69.390625 
L 28.421875 72.90625 
L 38.28125 72.90625 
L 38.28125 8.296875 
L 54.390625 8.296875 
L 54.390625 0 
L 12.40625 0 
z
" id="DejaVuSans-49"/>
      </defs>
      <g transform="translate(109.957344 322.182437)scale(0.1 -0.1)">
       <use xlink:href="#DejaVuSans-8722"/>
       <use x="83.789062" xlink:href="#DejaVuSans-48"/>
       <use x="147.412109" xlink:href="#DejaVuSans-46"/>
       <use x="179.199219" xlink:href="#DejaVuSans-49"/>
       <use x="242.822266" xlink:href="#DejaVuSans-48"/>
      </g>
     </g>
    </g>
    <g id="xtick_2">
     <g id="line2d_2">
      <g>
       <use style="stroke:#000000;stroke-width:0.8;" x="180.72" xlink:href="#mb5a94146e6" y="307.584"/>
      </g>
     </g>
     <g id="text_2">
      <!-- −0.05 -->
      <defs>
       <path d="M 10.796875 72.90625 
L 49.515625 72.90625 
L 49.515625 64.59375 
L 19.828125 64.59375 
L 19.828125 46.734375 
Q 21.96875 47.46875 24.109375 47.828125 
Q 26.265625 48.1875 28.421875 48.1875 
Q 40.625 48.1875 47.75 41.5 
Q 54.890625 34.8125 54.890625 23.390625 
Q 54.890625 11.625 47.5625 5.09375 
Q 40.234375 -1.421875 26.90625 -1.421875 
Q 22.3125 -1.421875 17.546875 -0.640625 
Q 12.796875 0.140625 7.71875 1.703125 
L 7.71875 11.625 
Q 12.109375 9.234375 16.796875 8.0625 
Q 21.484375 6.890625 26.703125 6.890625 
Q 35.15625 6.890625 40.078125 11.328125 
Q 45.015625 15.765625 45.015625 23.390625 
Q 45.015625 31 40.078125 35.4375 
Q 35.15625 39.890625 26.703125 39.890625 
Q 22.75 39.890625 18.8125 39.015625 
Q 14.890625 38.140625 10.796875 36.28125 
z
" id="DejaVuSans-53"/>
      </defs>
      <g transform="translate(165.397344 322.182437)scale(0.1 -0.1)">
       <use xlink:href="#DejaVuSans-8722"/>
       <use x="83.789062" xlink:href="#DejaVuSans-48"/>
       <use x="147.412109" xlink:href="#DejaVuSans-46"/>
       <use x="179.199219" xlink:href="#DejaVuSans-48"/>
       <use x="242.822266" xlink:href="#DejaVuSans-53"/>
      </g>
     </g>
    </g>
    <g id="xtick_3">
     <g id="line2d_3">
      <g>
       <use style="stroke:#000000;stroke-width:0.8;" x="236.16" xlink:href="#mb5a94146e6" y="307.584"/>
      </g>
     </g>
     <g id="text_3">
      <!-- 0.00 -->
      <g transform="translate(225.027188 322.182437)scale(0.1 -0.1)">
       <use xlink:href="#DejaVuSans-48"/>
       <use x="63.623047" xlink:href="#DejaVuSans-46"/>
       <use x="95.410156" xlink:href="#DejaVuSans-48"/>
       <use x="159.033203" xlink:href="#DejaVuSans-48"/>
      </g>
     </g>
    </g>
    <g id="xtick_4">
     <g id="line2d_4">
      <g>
       <use style="stroke:#000000;stroke-width:0.8;" x="291.6" xlink:href="#mb5a94146e6" y="307.584"/>
      </g>
     </g>
     <g id="text_4">
      <!-- 0.05 -->
      <g transform="translate(280.467188 322.182437)scale(0.1 -0.1)">
       <use xlink:href="#DejaVuSans-48"/>
       <use x="63.623047" xlink:href="#DejaVuSans-46"/>
       <use x="95.410156" xlink:href="#DejaVuSans-48"/>
       <use x="159.033203" xlink:href="#DejaVuSans-53"/>
      </g>
     </g>
    </g>
    <g id="xtick_5">
     <g id="line2d_5">
      <g>
       <use style="stroke:#000000;stroke-width:0.8;" x="347.04" xlink:href="#mb5a94146e6" y="307.584"/>
      </g>
     </g>
     <g id="text_5">
      <!-- 0.10 -->
      <g transform="translate(335.907187 322.182437)scale(0.1 -0.1)">
       <use xlink:href="#DejaVuSans-48"/>
       <use x="63.623047" xlink:href="#DejaVuSans-46"/>
       <use x="95.410156" xlink:href="#DejaVuSans-49"/>
       <use x="159.033203" xlink:href="#DejaVuSans-48"/>
      </g>
     </g>
    </g>
   </g>
   <g id="matplotlib.axis_2">
    <g id="ytick_1">
     <g id="line2d_6">
      <defs>
       <path d="M 0 0 
L -3.5 0 
" id="m5e510f59b0" style="stroke:#000000;stroke-width:0.8;"/>
      </defs>
      <g>
       <use style="stroke:#000000;stroke-width:0.8;" x="103.104" xlink:href="#m5e510f59b0" y="285.408"/>
      </g>
     </g>
     <g id="text_6">
      <!-- −0.15 -->
      <g transform="translate(65.458688 289.207219)scale(0.1 -0.1)">
       <use xlink:href="#DejaVuSans-8722"/>
       <use x="83.789062" xlink:href="#DejaVuSans-48"/>
       <use x="147.412109" xlink:href="#DejaVuSans-46"/>
       <use x="179.199219" xlink:href="#DejaVuSans-49"/>
       <use x="242.822266" xlink:href="#DejaVuSans-53"/>
      </g>
     </g>
    </g>
    <g id="ytick_2">
     <g id="line2d_7">
      <g>
       <use style="stroke:#000000;stroke-width:0.8;" x="103.104" xlink:href="#m5e510f59b0" y="229.968"/>
      </g>
     </g>
     <g id="text_7">
      <!-- −0.10 -->
      <g transform="translate(65.458688 233.767219)scale(0.1 -0.1)">
       <use xlink:href="#DejaVuSans-8722"/>
       <use x="83.789062" xlink:href="#DejaVuSans-48"/>
       <use x="147.412109" xlink:href="#DejaVuSans-46"/>
       <use x="179.199219" xlink:href="#DejaVuSans-49"/>
       <use x="242.822266" xlink:href="#DejaVuSans-48"/>
      </g>
     </g>
    </g>
    <g id="ytick_3">
     <g id="line2d_8">
      <g>
       <use style="stroke:#000000;stroke-width:0.8;" x="103.104" xlink:href="#m5e510f59b0" y="174.528"/>
      </g>
     </g>
     <g id="text_8">
      <!-- −0.05 -->
      <g transform="translate(65.458688 178.327219)scale(0.1 -0.1)">
       <use xlink:href="#DejaVuSans-8722"/>
       <use x="83.789062" xlink:href="#DejaVuSans-48"/>
       <use x="147.412109" xlink:href="#DejaVuSans-46"/>
       <use x="179.199219" xlink:href="#DejaVuSans-48"/>
       <use x="242.822266" xlink:href="#DejaVuSans-53"/>
      </g>
     </g>
    </g>
    <g id="ytick_4">
     <g id="line2d_9">
      <g>
       <use style="stroke:#000000;stroke-width:0.8;" x="103.104" xlink:href="#m5e510f59b0" y="119.088"/>
      </g>
     </g>
     <g id="text_9">
      <!-- 0.00 -->
      <g transform="translate(73.838375 122.887219)scale(0.1 -0.1)">
       <use xlink:href="#DejaVuSans-48"/>
       <use x="63.623047" xlink:href="#DejaVuSans-46"/>
       <use x="95.410156" xlink:href="#DejaVuSans-48"/>
       <use x="159.033203" xlink:href="#DejaVuSans-48"/>
      </g>
     </g>
    </g>
    <g id="ytick_5">
     <g id="line2d_10">
      <g>
       <use style="stroke:#000000;stroke-width:0.8;" x="103.104" xlink:href="#m5e510f59b0" y="63.648"/>
      </g>
     </g>
     <g id="text_10">
      <!-- 0.05 -->
      <g transform="translate(73.838375 67.447219)scale(0.1 -0.1)">
       <use xlink:href="#DejaVuSans-48"/>
       <use x="63.623047" xlink:href="#DejaVuSans-46"/>
       <use x="95.410156" xlink:href="#DejaVuSans-48"/>
       <use x="159.033203" xlink:href="#DejaVuSans-53"/>
      </g>
     </g>
    </g>
   </g>
   <g id="patch_4">
    <path d="M 103.104 307.584 
L 103.104 41.472 
" style="fill:none;stroke:#000000;stroke-linecap:square;stroke-linejoin:miter;stroke-width:0.8;"/>
   </g>
   <g id="patch_5">
    <path d="M 369.216 307.584 
L 369.216 41.472 
" style="fill:none;stroke:#000000;stroke-linecap:square;stroke-linejoin:miter;stroke-width:0.8;"/>
   </g>
   <g id="patch_6">
    <path d="M 103.104 307.584 
L 369.216 307.584 
" style="fill:none;stroke:#000000;stroke-linecap:square;stroke-linejoin:miter;stroke-width:0.8;"/>
   </g>
   <g id="patch_7">
    <path d="M 103.104 41.472 
L 369.216 41.472 
" style="fill:none;stroke:#000000;stroke-linecap:square;stroke-linejoin:miter;stroke-width:0.8;"/>
   </g>
  </g>
 </g>
 <defs>
  <clipPath id="pede28ee3c3">
   <rect height="266.112" width="266.112" x="103.104" y="41.472"/>
  </clipPath>
 </defs>
</svg>
