<?xml version="1.0" encoding="utf-8" standalone="no"?>
<!DOCTYPE svg PUBLIC "-//W3C//DTD SVG 1.1//EN"
  "http://www.w3.org/Graphics/SVG/1.1/DTD/svg11.dtd">
<!-- Created with matplotlib (https://matplotlib.org/) -->
<svg height="345.6pt" version="1.1" viewBox="0 0 460.8 345.6" width="460.8pt" xmlns="http://www.w3.org/2000/svg" xmlns:xlink="http://www.w3.org/1999/xlink">
 <defs>
  <style type="text/css">
*{stroke-linecap:butt;stroke-linejoin:round;}
  </style>
 </defs>
 <g id="figure_1">
  <g id="patch_1">
   <path d="M 0 345.6 
L 460.8 345.6 
L 460.8 0 
L 0 0 
z
" style="fill:#ffffff;"/>
  </g>
  <g id="axes_1">
   <g id="patch_2">
    <path d="M 103.104 307.584 
L 369.216 307.584 
L 369.216 41.472 
L 103.104 41.472 
z
" style="fill:#ffffff;"/>
   </g>
   <g id="PathCollection_1">
    <defs>
     <path d="M 0 2.236068 
C 0.593012 2.236068 1.161816 2.000462 1.581139 1.581139 
C 2.000462 1.161816 2.236068 0.593012 2.236068 0 
C 2.236068 -0.593012 2.000462 -1.161816 1.581139 -1.581139 
C 1.161816 -2.000462 0.593012 -2.236068 0 -2.236068 
C -0.593012 -2.236068 -1.161816 -2.000462 -1.581139 -1.581139 
C -2.000462 -1.161816 -2.236068 -0.593012 -2.236068 0 
C -2.236068 0.593012 -2.000462 1.161816 -1.581139 1.581139 
C -1.161816 2.000462 -0.593012 2.236068 0 2.236068 
z
" id="C0_0_b106f78b63"/>
    </defs>
    <g clip-path="url(#pb385d0948c)">
     <use style="fill:#0000ff;stroke:#0000ff;" x="227.036922" xlink:href="#C0_0_b106f78b63" y="129.572649"/>
    </g>
    <g clip-path="url(#pb385d0948c)">
     <use style="fill:#0005fc;stroke:#0005fc;" x="218.498876" xlink:href="#C0_0_b106f78b63" y="139.877605"/>
    </g>
    <g clip-path="url(#pb385d0948c)">
     <use style="fill:#000afa;stroke:#000afa;" x="207.769797" xlink:href="#C0_0_b106f78b63" y="147.498124"/>
    </g>
    <g clip-path="url(#pb385d0948c)">
     <use style="fill:#000ff8;stroke:#000ff8;" x="196.774076" xlink:href="#C0_0_b106f78b63" y="157.294161"/>
    </g>
    <g clip-path="url(#pb385d0948c)">
     <use style="fill:#0014f5;stroke:#0014f5;" x="196.373867" xlink:href="#C0_0_b106f78b63" y="166.756532"/>
    </g>
    <g clip-path="url(#pb385d0948c)">
     <use style="fill:#001af2;stroke:#001af2;" x="188.253315" xlink:href="#C0_0_b106f78b63" y="176.713308"/>
    </g>
    <g clip-path="url(#pb385d0948c)">
     <use style="fill:#001ff0;stroke:#001ff0;" x="180.935778" xlink:href="#C0_0_b106f78b63" y="184.317786"/>
    </g>
    <g clip-path="url(#pb385d0948c)">
     <use style="fill:#0024ed;stroke:#0024ed;" x="172.563339" xlink:href="#C0_0_b106f78b63" y="178.770405"/>
    </g>
    <g clip-path="url(#pb385d0948c)">
     <use style="fill:#0029eb;stroke:#0029eb;" x="175.978677" xlink:href="#C0_0_b106f78b63" y="172.534989"/>
    </g>
    <g clip-path="url(#pb385d0948c)">
     <use style="fill:#002fe8;stroke:#002fe8;" x="175.183653" xlink:href="#C0_0_b106f78b63" y="172.26356"/>
    </g>
    <g clip-path="url(#pb385d0948c)">
     <use style="fill:#0034e5;stroke:#0034e5;" x="179.360602" xlink:href="#C0_0_b106f78b63" y="179.702622"/>
    </g>
    <g clip-path="url(#pb385d0948c)">
     <use style="fill:#0039e2;stroke:#0039e2;" x="169.969673" xlink:href="#C0_0_b106f78b63" y="179.10517"/>
    </g>
    <g clip-path="url(#pb385d0948c)">
     <use style="fill:#003ee0;stroke:#003ee0;" x="164.994159" xlink:href="#C0_0_b106f78b63" y="189.111974"/>
    </g>
    <g clip-path="url(#pb385d0948c)">
     <use style="fill:#0043de;stroke:#0043de;" x="164.500097" xlink:href="#C0_0_b106f78b63" y="193.877634"/>
    </g>
    <g clip-path="url(#pb385d0948c)">
     <use style="fill:#0049db;stroke:#0049db;" x="169.415458" xlink:href="#C0_0_b106f78b63" y="184.791607"/>
    </g>
    <g clip-path="url(#pb385d0948c)">
     <use style="fill:#004ed8;stroke:#004ed8;" x="171.896004" xlink:href="#C0_0_b106f78b63" y="185.406592"/>
    </g>
    <g clip-path="url(#pb385d0948c)">
     <use style="fill:#0053d6;stroke:#0053d6;" x="170.953786" xlink:href="#C0_0_b106f78b63" y="183.209977"/>
    </g>
    <g clip-path="url(#pb385d0948c)">
     <use style="fill:#0058d3;stroke:#0058d3;" x="167.36336" xlink:href="#C0_0_b106f78b63" y="179.661375"/>
    </g>
    <g clip-path="url(#pb385d0948c)">
     <use style="fill:#005ed0;stroke:#005ed0;" x="168.891982" xlink:href="#C0_0_b106f78b63" y="171.927076"/>
    </g>
    <g clip-path="url(#pb385d0948c)">
     <use style="fill:#0063ce;stroke:#0063ce;" x="164.181302" xlink:href="#C0_0_b106f78b63" y="178.778731"/>
    </g>
    <g clip-path="url(#pb385d0948c)">
     <use style="fill:#0068cb;stroke:#0068cb;" x="165.072584" xlink:href="#C0_0_b106f78b63" y="180.533933"/>
    </g>
    <g clip-path="url(#pb385d0948c)">
     <use style="fill:#006dc8;stroke:#006dc8;" x="173.373986" xlink:href="#C0_0_b106f78b63" y="175.734173"/>
    </g>
    <g clip-path="url(#pb385d0948c)">
     <use style="fill:#0072c6;stroke:#0072c6;" x="167.896675" xlink:href="#C0_0_b106f78b63" y="180.972313"/>
    </g>
    <g clip-path="url(#pb385d0948c)">
     <use style="fill:#0078c3;stroke:#0078c3;" x="165.616119" xlink:href="#C0_0_b106f78b63" y="186.078811"/>
    </g>
    <g clip-path="url(#pb385d0948c)">
     <use style="fill:#007dc0;stroke:#007dc0;" x="163.295165" xlink:href="#C0_0_b106f78b63" y="182.677773"/>
    </g>
    <g clip-path="url(#pb385d0948c)">
     <use style="fill:#0082be;stroke:#0082be;" x="167.426191" xlink:href="#C0_0_b106f78b63" y="173.270396"/>
    </g>
    <g clip-path="url(#pb385d0948c)">
     <use style="fill:#0087bc;stroke:#0087bc;" x="165.526393" xlink:href="#C0_0_b106f78b63" y="170.915588"/>
    </g>
    <g clip-path="url(#pb385d0948c)">
     <use style="fill:#008db8;stroke:#008db8;" x="171.644731" xlink:href="#C0_0_b106f78b63" y="177.370337"/>
    </g>
    <g clip-path="url(#pb385d0948c)">
     <use style="fill:#0092b6;stroke:#0092b6;" x="169.683828" xlink:href="#C0_0_b106f78b63" y="179.803845"/>
    </g>
    <g clip-path="url(#pb385d0948c)">
     <use style="fill:#0097b3;stroke:#0097b3;" x="171.022359" xlink:href="#C0_0_b106f78b63" y="182.283729"/>
    </g>
    <g clip-path="url(#pb385d0948c)">
     <use style="fill:#009cb1;stroke:#009cb1;" x="166.344166" xlink:href="#C0_0_b106f78b63" y="177.560842"/>
    </g>
    <g clip-path="url(#pb385d0948c)">
     <use style="fill:#00a1ae;stroke:#00a1ae;" x="161.813019" xlink:href="#C0_0_b106f78b63" y="180.922449"/>
    </g>
    <g clip-path="url(#pb385d0948c)">
     <use style="fill:#00a7ac;stroke:#00a7ac;" x="159.489603" xlink:href="#C0_0_b106f78b63" y="178.415564"/>
    </g>
    <g clip-path="url(#pb385d0948c)">
     <use style="fill:#00aca9;stroke:#00aca9;" x="163.530192" xlink:href="#C0_0_b106f78b63" y="183.126126"/>
    </g>
    <g clip-path="url(#pb385d0948c)">
     <use style="fill:#00b1a6;stroke:#00b1a6;" x="172.829235" xlink:href="#C0_0_b106f78b63" y="187.565051"/>
    </g>
    <g clip-path="url(#pb385d0948c)">
     <use style="fill:#00b6a4;stroke:#00b6a4;" x="166.925159" xlink:href="#C0_0_b106f78b63" y="190.437169"/>
    </g>
    <g clip-path="url(#pb385d0948c)">
     <use style="fill:#00bca1;stroke:#00bca1;" x="162.862874" xlink:href="#C0_0_b106f78b63" y="183.95197"/>
    </g>
    <g clip-path="url(#pb385d0948c)">
     <use style="fill:#00c19e;stroke:#00c19e;" x="162.335763" xlink:href="#C0_0_b106f78b63" y="184.118099"/>
    </g>
    <g clip-path="url(#pb385d0948c)">
     <use style="fill:#00c69c;stroke:#00c69c;" x="167.627726" xlink:href="#C0_0_b106f78b63" y="179.325026"/>
    </g>
    <g clip-path="url(#pb385d0948c)">
     <use style="fill:#00cb9a;stroke:#00cb9a;" x="168.198171" xlink:href="#C0_0_b106f78b63" y="185.739101"/>
    </g>
    <g clip-path="url(#pb385d0948c)">
     <use style="fill:#00d097;stroke:#00d097;" x="168.739273" xlink:href="#C0_0_b106f78b63" y="189.11766"/>
    </g>
    <g clip-path="url(#pb385d0948c)">
     <use style="fill:#00d694;stroke:#00d694;" x="161.752251" xlink:href="#C0_0_b106f78b63" y="189.054046"/>
    </g>
    <g clip-path="url(#pb385d0948c)">
     <use style="fill:#00db92;stroke:#00db92;" x="165.335422" xlink:href="#C0_0_b106f78b63" y="185.375988"/>
    </g>
    <g clip-path="url(#pb385d0948c)">
     <use style="fill:#00e08f;stroke:#00e08f;" x="163.2311" xlink:href="#C0_0_b106f78b63" y="182.858101"/>
    </g>
    <g clip-path="url(#pb385d0948c)">
     <use style="fill:#00e58c;stroke:#00e58c;" x="162.664762" xlink:href="#C0_0_b106f78b63" y="187.867483"/>
    </g>
    <g clip-path="url(#pb385d0948c)">
     <use style="fill:#00eb8a;stroke:#00eb8a;" x="157.741426" xlink:href="#C0_0_b106f78b63" y="183.780162"/>
    </g>
    <g clip-path="url(#pb385d0948c)">
     <use style="fill:#00f087;stroke:#00f087;" x="162.882317" xlink:href="#C0_0_b106f78b63" y="182.817251"/>
    </g>
    <g clip-path="url(#pb385d0948c)">
     <use style="fill:#00f584;stroke:#00f584;" x="156.829919" xlink:href="#C0_0_b106f78b63" y="186.398525"/>
    </g>
    <g clip-path="url(#pb385d0948c)">
     <use style="fill:#00fa82;stroke:#00fa82;" x="163.336807" xlink:href="#C0_0_b106f78b63" y="190.118605"/>
    </g>
    <g clip-path="url(#pb385d0948c)">
     <use style="fill:#00ff80;stroke:#00ff80;" x="168.71562" xlink:href="#C0_0_b106f78b63" y="199.128358"/>
    </g>
   </g>
   <g id="PathCollection_2">
    <defs>
     <path d="M 0 2.738613 
C 0.726289 2.738613 1.422928 2.450055 1.936492 1.936492 
C 2.450055 1.422928 2.738613 0.726289 2.738613 0 
C 2.738613 -0.726289 2.450055 -1.422928 1.936492 -1.936492 
C 1.422928 -2.450055 0.726289 -2.738613 0 -2.738613 
C -0.726289 -2.738613 -1.422928 -2.450055 -1.936492 -1.936492 
C -2.450055 -1.422928 -2.738613 -0.726289 -2.738613 0 
C -2.738613 0.726289 -2.450055 1.422928 -1.936492 1.936492 
C -1.422928 2.450055 -0.726289 2.738613 0 2.738613 
z
" id="m714e1aa769" style="stroke:#696969;"/>
    </defs>
    <g clip-path="url(#pb385d0948c)">
     <use style="fill:#696969;stroke:#696969;" x="165.85764" xlink:href="#m714e1aa769" y="88.784472"/>
    </g>
   </g>
   <g id="patch_3">
    <path clip-path="url(#pb385d0948c)" d="M 236.16 285.408 
C 265.56572 285.408 293.771016 273.724984 314.564 252.932 
C 335.356984 232.139016 347.04 203.93372 347.04 174.528 
C 347.04 145.12228 335.356984 116.916984 314.564 96.124 
C 293.771016 75.331016 265.56572 63.648 236.16 63.648 
C 206.75428 63.648 178.548984 75.331016 157.756 96.124 
C 136.963016 116.916984 125.28 145.12228 125.28 174.528 
C 125.28 203.93372 136.963016 232.139016 157.756 252.932 
C 178.548984 273.724984 206.75428 285.408 236.16 285.408 
z
" style="fill:none;stroke:#696969;stroke-linejoin:miter;"/>
   </g>
   <g id="matplotlib.axis_1">
    <g id="xtick_1">
     <g id="line2d_1">
      <defs>
       <path d="M 0 0 
L 0 3.5 
" id="m8b20ad2911" style="stroke:#000000;stroke-width:0.8;"/>
      </defs>
      <g>
       <use style="stroke:#000000;stroke-width:0.8;" x="125.28" xlink:href="#m8b20ad2911" y="307.584"/>
      </g>
     </g>
     <g id="text_1">
      <!-- −0.10 -->
      <defs>
       <path d="M 10.59375 35.5 
L 73.1875 35.5 
L 73.1875 27.203125 
L 10.59375 27.203125 
z
" id="DejaVuSans-8722"/>
       <path d="M 31.78125 66.40625 
Q 24.171875 66.40625 20.328125 58.90625 
Q 16.5 51.421875 16.5 36.375 
Q 16.5 21.390625 20.328125 13.890625 
Q 24.171875 6.390625 31.78125 6.390625 
Q 39.453125 6.390625 43.28125 13.890625 
Q 47.125 21.390625 47.125 36.375 
Q 47.125 51.421875 43.28125 58.90625 
Q 39.453125 66.40625 31.78125 66.40625 
z
M 31.78125 74.21875 
Q 44.046875 74.21875 50.515625 64.515625 
Q 56.984375 54.828125 56.984375 36.375 
Q 56.984375 17.96875 50.515625 8.265625 
Q 44.046875 -1.421875 31.78125 -1.421875 
Q 19.53125 -1.421875 13.0625 8.265625 
Q 6.59375 17.96875 6.59375 36.375 
Q 6.59375 54.828125 13.0625 64.515625 
Q 19.53125 74.21875 31.78125 74.21875 
z
" id="DejaVuSans-48"/>
       <path d="M 10.6875 12.40625 
L 21 12.40625 
L 21 0 
L 10.6875 0 
z
" id="DejaVuSans-46"/>
       <path d="M 12.40625 8.296875 
L 28.515625 8.296875 
L 28.515625 63.921875 
L 10.984375 60.40625 
L 10.984375 69.390625 
L 28.421875 72.90625 
L 38.28125 72.90625 
L 38.28125 8.296875 
L 54.390625 8.296875 
L 54.390625 0 
L 12.40625 0 
z
" id="DejaVuSans-49"/>
      </defs>
      <g transform="translate(109.957344 322.182437)scale(0.1 -0.1)">
       <use xlink:href="#DejaVuSans-8722"/>
       <use x="83.789062" xlink:href="#DejaVuSans-48"/>
       <use x="147.412109" xlink:href="#DejaVuSans-46"/>
       <use x="179.199219" xlink:href="#DejaVuSans-49"/>
       <use x="242.822266" xlink:href="#DejaVuSans-48"/>
      </g>
     </g>
    </g>
    <g id="xtick_2">
     <g id="line2d_2">
      <g>
       <use style="stroke:#000000;stroke-width:0.8;" x="180.72" xlink:href="#m8b20ad2911" y="307.584"/>
      </g>
     </g>
     <g id="text_2">
      <!-- −0.05 -->
      <defs>
       <path d="M 10.796875 72.90625 
L 49.515625 72.90625 
L 49.515625 64.59375 
L 19.828125 64.59375 
L 19.828125 46.734375 
Q 21.96875 47.46875 24.109375 47.828125 
Q 26.265625 48.1875 28.421875 48.1875 
Q 40.625 48.1875 47.75 41.5 
Q 54.890625 34.8125 54.890625 23.390625 
Q 54.890625 11.625 47.5625 5.09375 
Q 40.234375 -1.421875 26.90625 -1.421875 
Q 22.3125 -1.421875 17.546875 -0.640625 
Q 12.796875 0.140625 7.71875 1.703125 
L 7.71875 11.625 
Q 12.109375 9.234375 16.796875 8.0625 
Q 21.484375 6.890625 26.703125 6.890625 
Q 35.15625 6.890625 40.078125 11.328125 
Q 45.015625 15.765625 45.015625 23.390625 
Q 45.015625 31 40.078125 35.4375 
Q 35.15625 39.890625 26.703125 39.890625 
Q 22.75 39.890625 18.8125 39.015625 
Q 14.890625 38.140625 10.796875 36.28125 
z
" id="DejaVuSans-53"/>
      </defs>
      <g transform="translate(165.397344 322.182437)scale(0.1 -0.1)">
       <use xlink:href="#DejaVuSans-8722"/>
       <use x="83.789062" xlink:href="#DejaVuSans-48"/>
       <use x="147.412109" xlink:href="#DejaVuSans-46"/>
       <use x="179.199219" xlink:href="#DejaVuSans-48"/>
       <use x="242.822266" xlink:href="#DejaVuSans-53"/>
      </g>
     </g>
    </g>
    <g id="xtick_3">
     <g id="line2d_3">
      <g>
       <use style="stroke:#000000;stroke-width:0.8;" x="236.16" xlink:href="#m8b20ad2911" y="307.584"/>
      </g>
     </g>
     <g id="text_3">
      <!-- 0.00 -->
      <g transform="translate(225.027188 322.182437)scale(0.1 -0.1)">
       <use xlink:href="#DejaVuSans-48"/>
       <use x="63.623047" xlink:href="#DejaVuSans-46"/>
       <use x="95.410156" xlink:href="#DejaVuSans-48"/>
       <use x="159.033203" xlink:href="#DejaVuSans-48"/>
      </g>
     </g>
    </g>
    <g id="xtick_4">
     <g id="line2d_4">
      <g>
       <use style="stroke:#000000;stroke-width:0.8;" x="291.6" xlink:href="#m8b20ad2911" y="307.584"/>
      </g>
     </g>
     <g id="text_4">
      <!-- 0.05 -->
      <g transform="translate(280.467188 322.182437)scale(0.1 -0.1)">
       <use xlink:href="#DejaVuSans-48"/>
       <use x="63.623047" xlink:href="#DejaVuSans-46"/>
       <use x="95.410156" xlink:href="#DejaVuSans-48"/>
       <use x="159.033203" xlink:href="#DejaVuSans-53"/>
      </g>
     </g>
    </g>
    <g id="xtick_5">
     <g id="line2d_5">
      <g>
       <use style="stroke:#000000;stroke-width:0.8;" x="347.04" xlink:href="#m8b20ad2911" y="307.584"/>
      </g>
     </g>
     <g id="text_5">
      <!-- 0.10 -->
      <g transform="translate(335.907187 322.182437)scale(0.1 -0.1)">
       <use xlink:href="#DejaVuSans-48"/>
       <use x="63.623047" xlink:href="#DejaVuSans-46"/>
       <use x="95.410156" xlink:href="#DejaVuSans-49"/>
       <use x="159.033203" xlink:href="#DejaVuSans-48"/>
      </g>
     </g>
    </g>
   </g>
   <g id="matplotlib.axis_2">
    <g id="ytick_1">
     <g id="line2d_6">
      <defs>
       <path d="M 0 0 
L -3.5 0 
" id="ma0893c12e3" style="stroke:#000000;stroke-width:0.8;"/>
      </defs>
      <g>
       <use style="stroke:#000000;stroke-width:0.8;" x="103.104" xlink:href="#ma0893c12e3" y="285.408"/>
      </g>
     </g>
     <g id="text_6">
      <!-- −0.15 -->
      <g transform="translate(65.458688 289.207219)scale(0.1 -0.1)">
       <use xlink:href="#DejaVuSans-8722"/>
       <use x="83.789062" xlink:href="#DejaVuSans-48"/>
       <use x="147.412109" xlink:href="#DejaVuSans-46"/>
       <use x="179.199219" xlink:href="#DejaVuSans-49"/>
       <use x="242.822266" xlink:href="#DejaVuSans-53"/>
      </g>
     </g>
    </g>
    <g id="ytick_2">
     <g id="line2d_7">
      <g>
       <use style="stroke:#000000;stroke-width:0.8;" x="103.104" xlink:href="#ma0893c12e3" y="229.968"/>
      </g>
     </g>
     <g id="text_7">
      <!-- −0.10 -->
      <g transform="translate(65.458688 233.767219)scale(0.1 -0.1)">
       <use xlink:href="#DejaVuSans-8722"/>
       <use x="83.789062" xlink:href="#DejaVuSans-48"/>
       <use x="147.412109" xlink:href="#DejaVuSans-46"/>
       <use x="179.199219" xlink:href="#DejaVuSans-49"/>
       <use x="242.822266" xlink:href="#DejaVuSans-48"/>
      </g>
     </g>
    </g>
    <g id="ytick_3">
     <g id="line2d_8">
      <g>
       <use style="stroke:#000000;stroke-width:0.8;" x="103.104" xlink:href="#ma0893c12e3" y="174.528"/>
      </g>
     </g>
     <g id="text_8">
      <!-- −0.05 -->
      <g transform="translate(65.458688 178.327219)scale(0.1 -0.1)">
       <use xlink:href="#DejaVuSans-8722"/>
       <use x="83.789062" xlink:href="#DejaVuSans-48"/>
       <use x="147.412109" xlink:href="#DejaVuSans-46"/>
       <use x="179.199219" xlink:href="#DejaVuSans-48"/>
       <use x="242.822266" xlink:href="#DejaVuSans-53"/>
      </g>
     </g>
    </g>
    <g id="ytick_4">
     <g id="line2d_9">
      <g>
       <use style="stroke:#000000;stroke-width:0.8;" x="103.104" xlink:href="#ma0893c12e3" y="119.088"/>
      </g>
     </g>
     <g id="text_9">
      <!-- 0.00 -->
      <g transform="translate(73.838375 122.887219)scale(0.1 -0.1)">
       <use xlink:href="#DejaVuSans-48"/>
       <use x="63.623047" xlink:href="#DejaVuSans-46"/>
       <use x="95.410156" xlink:href="#DejaVuSans-48"/>
       <use x="159.033203" xlink:href="#DejaVuSans-48"/>
      </g>
     </g>
    </g>
    <g id="ytick_5">
     <g id="line2d_10">
      <g>
       <use style="stroke:#000000;stroke-width:0.8;" x="103.104" xlink:href="#ma0893c12e3" y="63.648"/>
      </g>
     </g>
     <g id="text_10">
      <!-- 0.05 -->
      <g transform="translate(73.838375 67.447219)scale(0.1 -0.1)">
       <use xlink:href="#DejaVuSans-48"/>
       <use x="63.623047" xlink:href="#DejaVuSans-46"/>
       <use x="95.410156" xlink:href="#DejaVuSans-48"/>
       <use x="159.033203" xlink:href="#DejaVuSans-53"/>
      </g>
     </g>
    </g>
   </g>
   <g id="patch_4">
    <path d="M 103.104 307.584 
L 103.104 41.472 
" style="fill:none;stroke:#000000;stroke-linecap:square;stroke-linejoin:miter;stroke-width:0.8;"/>
   </g>
   <g id="patch_5">
    <path d="M 369.216 307.584 
L 369.216 41.472 
" style="fill:none;stroke:#000000;stroke-linecap:square;stroke-linejoin:miter;stroke-width:0.8;"/>
   </g>
   <g id="patch_6">
    <path d="M 103.104 307.584 
L 369.216 307.584 
" style="fill:none;stroke:#000000;stroke-linecap:square;stroke-linejoin:miter;stroke-width:0.8;"/>
   </g>
   <g id="patch_7">
    <path d="M 103.104 41.472 
L 369.216 41.472 
" style="fill:none;stroke:#000000;stroke-linecap:square;stroke-linejoin:miter;stroke-width:0.8;"/>
   </g>
  </g>
 </g>
 <defs>
  <clipPath id="pb385d0948c">
   <rect height="266.112" width="266.112" x="103.104" y="41.472"/>
  </clipPath>
 </defs>
</svg>
