<?xml version="1.0" encoding="utf-8" standalone="no"?>
<!DOCTYPE svg PUBLIC "-//W3C//DTD SVG 1.1//EN"
  "http://www.w3.org/Graphics/SVG/1.1/DTD/svg11.dtd">
<!-- Created with matplotlib (https://matplotlib.org/) -->
<svg height="345.6pt" version="1.1" viewBox="0 0 460.8 345.6" width="460.8pt" xmlns="http://www.w3.org/2000/svg" xmlns:xlink="http://www.w3.org/1999/xlink">
 <defs>
  <style type="text/css">
*{stroke-linecap:butt;stroke-linejoin:round;}
  </style>
 </defs>
 <g id="figure_1">
  <g id="patch_1">
   <path d="M 0 345.6 
L 460.8 345.6 
L 460.8 0 
L 0 0 
z
" style="fill:#ffffff;"/>
  </g>
  <g id="axes_1">
   <g id="patch_2">
    <path d="M 103.104 307.584 
L 369.216 307.584 
L 369.216 41.472 
L 103.104 41.472 
z
" style="fill:#ffffff;"/>
   </g>
   <g id="PathCollection_1">
    <defs>
     <path d="M 0 2.236068 
C 0.593012 2.236068 1.161816 2.000462 1.581139 1.581139 
C 2.000462 1.161816 2.236068 0.593012 2.236068 0 
C 2.236068 -0.593012 2.000462 -1.161816 1.581139 -1.581139 
C 1.161816 -2.000462 0.593012 -2.236068 0 -2.236068 
C -0.593012 -2.236068 -1.161816 -2.000462 -1.581139 -1.581139 
C -2.000462 -1.161816 -2.236068 -0.593012 -2.236068 0 
C -2.236068 0.593012 -2.000462 1.161816 -1.581139 1.581139 
C -1.161816 2.000462 -0.593012 2.236068 0 2.236068 
z
" id="C0_0_33936c3fac"/>
    </defs>
    <g clip-path="url(#pb21dbbe060)">
     <use style="fill:#0000ff;stroke:#0000ff;" x="247.079103" xlink:href="#C0_0_33936c3fac" y="126.331123"/>
    </g>
    <g clip-path="url(#pb21dbbe060)">
     <use style="fill:#0005fc;stroke:#0005fc;" x="258.08414" xlink:href="#C0_0_33936c3fac" y="137.118009"/>
    </g>
    <g clip-path="url(#pb21dbbe060)">
     <use style="fill:#000afa;stroke:#000afa;" x="269.068422" xlink:href="#C0_0_33936c3fac" y="147.456005"/>
    </g>
    <g clip-path="url(#pb21dbbe060)">
     <use style="fill:#000ff8;stroke:#000ff8;" x="279.997066" xlink:href="#C0_0_33936c3fac" y="155.922731"/>
    </g>
    <g clip-path="url(#pb21dbbe060)">
     <use style="fill:#0014f5;stroke:#0014f5;" x="289.850338" xlink:href="#C0_0_33936c3fac" y="165.487364"/>
    </g>
    <g clip-path="url(#pb21dbbe060)">
     <use style="fill:#001af2;stroke:#001af2;" x="297.535817" xlink:href="#C0_0_33936c3fac" y="166.086296"/>
    </g>
    <g clip-path="url(#pb21dbbe060)">
     <use style="fill:#001ff0;stroke:#001ff0;" x="306.638064" xlink:href="#C0_0_33936c3fac" y="172.408196"/>
    </g>
    <g clip-path="url(#pb21dbbe060)">
     <use style="fill:#0024ed;stroke:#0024ed;" x="312.682148" xlink:href="#C0_0_33936c3fac" y="173.179549"/>
    </g>
    <g clip-path="url(#pb21dbbe060)">
     <use style="fill:#0029eb;stroke:#0029eb;" x="319.646824" xlink:href="#C0_0_33936c3fac" y="169.735704"/>
    </g>
    <g clip-path="url(#pb21dbbe060)">
     <use style="fill:#002fe8;stroke:#002fe8;" x="315.379856" xlink:href="#C0_0_33936c3fac" y="168.208418"/>
    </g>
    <g clip-path="url(#pb21dbbe060)">
     <use style="fill:#0034e5;stroke:#0034e5;" x="323.516319" xlink:href="#C0_0_33936c3fac" y="168.486789"/>
    </g>
    <g clip-path="url(#pb21dbbe060)">
     <use style="fill:#0039e2;stroke:#0039e2;" x="323.303807" xlink:href="#C0_0_33936c3fac" y="171.432697"/>
    </g>
    <g clip-path="url(#pb21dbbe060)">
     <use style="fill:#003ee0;stroke:#003ee0;" x="322.920594" xlink:href="#C0_0_33936c3fac" y="167.234151"/>
    </g>
    <g clip-path="url(#pb21dbbe060)">
     <use style="fill:#0043de;stroke:#0043de;" x="331.49185" xlink:href="#C0_0_33936c3fac" y="169.045465"/>
    </g>
    <g clip-path="url(#pb21dbbe060)">
     <use style="fill:#0049db;stroke:#0049db;" x="327.164403" xlink:href="#C0_0_33936c3fac" y="163.770235"/>
    </g>
    <g clip-path="url(#pb21dbbe060)">
     <use style="fill:#004ed8;stroke:#004ed8;" x="333.547125" xlink:href="#C0_0_33936c3fac" y="159.59243"/>
    </g>
    <g clip-path="url(#pb21dbbe060)">
     <use style="fill:#0053d6;stroke:#0053d6;" x="332.422807" xlink:href="#C0_0_33936c3fac" y="158.970754"/>
    </g>
    <g clip-path="url(#pb21dbbe060)">
     <use style="fill:#0058d3;stroke:#0058d3;" x="331.907775" xlink:href="#C0_0_33936c3fac" y="159.739229"/>
    </g>
    <g clip-path="url(#pb21dbbe060)">
     <use style="fill:#005ed0;stroke:#005ed0;" x="338.611225" xlink:href="#C0_0_33936c3fac" y="156.382606"/>
    </g>
    <g clip-path="url(#pb21dbbe060)">
     <use style="fill:#0063ce;stroke:#0063ce;" x="336.439584" xlink:href="#C0_0_33936c3fac" y="156.888177"/>
    </g>
    <g clip-path="url(#pb21dbbe060)">
     <use style="fill:#0068cb;stroke:#0068cb;" x="333.21511" xlink:href="#C0_0_33936c3fac" y="159.408534"/>
    </g>
    <g clip-path="url(#pb21dbbe060)">
     <use style="fill:#006dc8;stroke:#006dc8;" x="325.55254" xlink:href="#C0_0_33936c3fac" y="167.083223"/>
    </g>
    <g clip-path="url(#pb21dbbe060)">
     <use style="fill:#0072c6;stroke:#0072c6;" x="329.551243" xlink:href="#C0_0_33936c3fac" y="157.563989"/>
    </g>
    <g clip-path="url(#pb21dbbe060)">
     <use style="fill:#0078c3;stroke:#0078c3;" x="327.852163" xlink:href="#C0_0_33936c3fac" y="163.328761"/>
    </g>
    <g clip-path="url(#pb21dbbe060)">
     <use style="fill:#007dc0;stroke:#007dc0;" x="322.843511" xlink:href="#C0_0_33936c3fac" y="170.369608"/>
    </g>
    <g clip-path="url(#pb21dbbe060)">
     <use style="fill:#0082be;stroke:#0082be;" x="320.688055" xlink:href="#C0_0_33936c3fac" y="164.986532"/>
    </g>
    <g clip-path="url(#pb21dbbe060)">
     <use style="fill:#0087bc;stroke:#0087bc;" x="316.896751" xlink:href="#C0_0_33936c3fac" y="167.495844"/>
    </g>
    <g clip-path="url(#pb21dbbe060)">
     <use style="fill:#008db8;stroke:#008db8;" x="313.34152" xlink:href="#C0_0_33936c3fac" y="164.420492"/>
    </g>
    <g clip-path="url(#pb21dbbe060)">
     <use style="fill:#0092b6;stroke:#0092b6;" x="306.368351" xlink:href="#C0_0_33936c3fac" y="164.292113"/>
    </g>
    <g clip-path="url(#pb21dbbe060)">
     <use style="fill:#0097b3;stroke:#0097b3;" x="315.356532" xlink:href="#C0_0_33936c3fac" y="161.910561"/>
    </g>
    <g clip-path="url(#pb21dbbe060)">
     <use style="fill:#009cb1;stroke:#009cb1;" x="324.999941" xlink:href="#C0_0_33936c3fac" y="161.384974"/>
    </g>
    <g clip-path="url(#pb21dbbe060)">
     <use style="fill:#00a1ae;stroke:#00a1ae;" x="323.120034" xlink:href="#C0_0_33936c3fac" y="161.078617"/>
    </g>
    <g clip-path="url(#pb21dbbe060)">
     <use style="fill:#00a7ac;stroke:#00a7ac;" x="319.705621" xlink:href="#C0_0_33936c3fac" y="153.107895"/>
    </g>
    <g clip-path="url(#pb21dbbe060)">
     <use style="fill:#00aca9;stroke:#00aca9;" x="319.931844" xlink:href="#C0_0_33936c3fac" y="159.896718"/>
    </g>
    <g clip-path="url(#pb21dbbe060)">
     <use style="fill:#00b1a6;stroke:#00b1a6;" x="318.377624" xlink:href="#C0_0_33936c3fac" y="158.999745"/>
    </g>
    <g clip-path="url(#pb21dbbe060)">
     <use style="fill:#00b6a4;stroke:#00b6a4;" x="314.245681" xlink:href="#C0_0_33936c3fac" y="159.298378"/>
    </g>
    <g clip-path="url(#pb21dbbe060)">
     <use style="fill:#00bca1;stroke:#00bca1;" x="319.38211" xlink:href="#C0_0_33936c3fac" y="161.868022"/>
    </g>
    <g clip-path="url(#pb21dbbe060)">
     <use style="fill:#00c19e;stroke:#00c19e;" x="324.265786" xlink:href="#C0_0_33936c3fac" y="165.33184"/>
    </g>
    <g clip-path="url(#pb21dbbe060)">
     <use style="fill:#00c69c;stroke:#00c69c;" x="317.290932" xlink:href="#C0_0_33936c3fac" y="162.503789"/>
    </g>
    <g clip-path="url(#pb21dbbe060)">
     <use style="fill:#00cb9a;stroke:#00cb9a;" x="324.439402" xlink:href="#C0_0_33936c3fac" y="159.468544"/>
    </g>
    <g clip-path="url(#pb21dbbe060)">
     <use style="fill:#00d097;stroke:#00d097;" x="316.319328" xlink:href="#C0_0_33936c3fac" y="153.261612"/>
    </g>
    <g clip-path="url(#pb21dbbe060)">
     <use style="fill:#00d694;stroke:#00d694;" x="325.557434" xlink:href="#C0_0_33936c3fac" y="160.375654"/>
    </g>
    <g clip-path="url(#pb21dbbe060)">
     <use style="fill:#00db92;stroke:#00db92;" x="322.273763" xlink:href="#C0_0_33936c3fac" y="165.16567"/>
    </g>
    <g clip-path="url(#pb21dbbe060)">
     <use style="fill:#00e08f;stroke:#00e08f;" x="325.84261" xlink:href="#C0_0_33936c3fac" y="170.284127"/>
    </g>
    <g clip-path="url(#pb21dbbe060)">
     <use style="fill:#00e58c;stroke:#00e58c;" x="319.163814" xlink:href="#C0_0_33936c3fac" y="164.25556"/>
    </g>
    <g clip-path="url(#pb21dbbe060)">
     <use style="fill:#00eb8a;stroke:#00eb8a;" x="319.571743" xlink:href="#C0_0_33936c3fac" y="169.141096"/>
    </g>
    <g clip-path="url(#pb21dbbe060)">
     <use style="fill:#00f087;stroke:#00f087;" x="325.949634" xlink:href="#C0_0_33936c3fac" y="172.056464"/>
    </g>
    <g clip-path="url(#pb21dbbe060)">
     <use style="fill:#00f584;stroke:#00f584;" x="319.982863" xlink:href="#C0_0_33936c3fac" y="167.744308"/>
    </g>
    <g clip-path="url(#pb21dbbe060)">
     <use style="fill:#00fa82;stroke:#00fa82;" x="315.219979" xlink:href="#C0_0_33936c3fac" y="162.86647"/>
    </g>
    <g clip-path="url(#pb21dbbe060)">
     <use style="fill:#00ff80;stroke:#00ff80;" x="323.963022" xlink:href="#C0_0_33936c3fac" y="156.730659"/>
    </g>
   </g>
   <g id="PathCollection_2">
    <defs>
     <path d="M 0 2.738613 
C 0.726289 2.738613 1.422928 2.450055 1.936492 1.936492 
C 2.450055 1.422928 2.738613 0.726289 2.738613 0 
C 2.738613 -0.726289 2.450055 -1.422928 1.936492 -1.936492 
C 1.422928 -2.450055 0.726289 -2.738613 0 -2.738613 
C -0.726289 -2.738613 -1.422928 -2.450055 -1.936492 -1.936492 
C -2.450055 -1.422928 -2.738613 -0.726289 -2.738613 0 
C -2.738613 0.726289 -2.450055 1.422928 -1.936492 1.936492 
C -1.422928 2.450055 -0.726289 2.738613 0 2.738613 
z
" id="ma6f79f2b75" style="stroke:#696969;"/>
    </defs>
    <g clip-path="url(#pb21dbbe060)">
     <use style="fill:#696969;stroke:#696969;" x="345.24532" xlink:href="#ma6f79f2b75" y="154.659249"/>
    </g>
   </g>
   <g id="patch_3">
    <path clip-path="url(#pb21dbbe060)" d="M 236.16 285.408 
C 265.56572 285.408 293.771016 273.724984 314.564 252.932 
C 335.356984 232.139016 347.04 203.93372 347.04 174.528 
C 347.04 145.12228 335.356984 116.916984 314.564 96.124 
C 293.771016 75.331016 265.56572 63.648 236.16 63.648 
C 206.75428 63.648 178.548984 75.331016 157.756 96.124 
C 136.963016 116.916984 125.28 145.12228 125.28 174.528 
C 125.28 203.93372 136.963016 232.139016 157.756 252.932 
C 178.548984 273.724984 206.75428 285.408 236.16 285.408 
z
" style="fill:none;stroke:#696969;stroke-linejoin:miter;"/>
   </g>
   <g id="matplotlib.axis_1">
    <g id="xtick_1">
     <g id="line2d_1">
      <defs>
       <path d="M 0 0 
L 0 3.5 
" id="me12d1af2fc" style="stroke:#000000;stroke-width:0.8;"/>
      </defs>
      <g>
       <use style="stroke:#000000;stroke-width:0.8;" x="125.28" xlink:href="#me12d1af2fc" y="307.584"/>
      </g>
     </g>
     <g id="text_1">
      <!-- −0.10 -->
      <defs>
       <path d="M 10.59375 35.5 
L 73.1875 35.5 
L 73.1875 27.203125 
L 10.59375 27.203125 
z
" id="DejaVuSans-8722"/>
       <path d="M 31.78125 66.40625 
Q 24.171875 66.40625 20.328125 58.90625 
Q 16.5 51.421875 16.5 36.375 
Q 16.5 21.390625 20.328125 13.890625 
Q 24.171875 6.390625 31.78125 6.390625 
Q 39.453125 6.390625 43.28125 13.890625 
Q 47.125 21.390625 47.125 36.375 
Q 47.125 51.421875 43.28125 58.90625 
Q 39.453125 66.40625 31.78125 66.40625 
z
M 31.78125 74.21875 
Q 44.046875 74.21875 50.515625 64.515625 
Q 56.984375 54.828125 56.984375 36.375 
Q 56.984375 17.96875 50.515625 8.265625 
Q 44.046875 -1.421875 31.78125 -1.421875 
Q 19.53125 -1.421875 13.0625 8.265625 
Q 6.59375 17.96875 6.59375 36.375 
Q 6.59375 54.828125 13.0625 64.515625 
Q 19.53125 74.21875 31.78125 74.21875 
z
" id="DejaVuSans-48"/>
       <path d="M 10.6875 12.40625 
L 21 12.40625 
L 21 0 
L 10.6875 0 
z
" id="DejaVuSans-46"/>
       <path d="M 12.40625 8.296875 
L 28.515625 8.296875 
L 28.515625 63.921875 
L 10.984375 60.40625 
L 10.984375 69.390625 
L 28.421875 72.90625 
L 38.28125 72.90625 
L 38.28125 8.296875 
L 54.390625 8.296875 
L 54.390625 0 
L 12.40625 0 
z
" id="DejaVuSans-49"/>
      </defs>
      <g transform="translate(109.957344 322.182437)scale(0.1 -0.1)">
       <use xlink:href="#DejaVuSans-8722"/>
       <use x="83.789062" xlink:href="#DejaVuSans-48"/>
       <use x="147.412109" xlink:href="#DejaVuSans-46"/>
       <use x="179.199219" xlink:href="#DejaVuSans-49"/>
       <use x="242.822266" xlink:href="#DejaVuSans-48"/>
      </g>
     </g>
    </g>
    <g id="xtick_2">
     <g id="line2d_2">
      <g>
       <use style="stroke:#000000;stroke-width:0.8;" x="180.72" xlink:href="#me12d1af2fc" y="307.584"/>
      </g>
     </g>
     <g id="text_2">
      <!-- −0.05 -->
      <defs>
       <path d="M 10.796875 72.90625 
L 49.515625 72.90625 
L 49.515625 64.59375 
L 19.828125 64.59375 
L 19.828125 46.734375 
Q 21.96875 47.46875 24.109375 47.828125 
Q 26.265625 48.1875 28.421875 48.1875 
Q 40.625 48.1875 47.75 41.5 
Q 54.890625 34.8125 54.890625 23.390625 
Q 54.890625 11.625 47.5625 5.09375 
Q 40.234375 -1.421875 26.90625 -1.421875 
Q 22.3125 -1.421875 17.546875 -0.640625 
Q 12.796875 0.140625 7.71875 1.703125 
L 7.71875 11.625 
Q 12.109375 9.234375 16.796875 8.0625 
Q 21.484375 6.890625 26.703125 6.890625 
Q 35.15625 6.890625 40.078125 11.328125 
Q 45.015625 15.765625 45.015625 23.390625 
Q 45.015625 31 40.078125 35.4375 
Q 35.15625 39.890625 26.703125 39.890625 
Q 22.75 39.890625 18.8125 39.015625 
Q 14.890625 38.140625 10.796875 36.28125 
z
" id="DejaVuSans-53"/>
      </defs>
      <g transform="translate(165.397344 322.182437)scale(0.1 -0.1)">
       <use xlink:href="#DejaVuSans-8722"/>
       <use x="83.789062" xlink:href="#DejaVuSans-48"/>
       <use x="147.412109" xlink:href="#DejaVuSans-46"/>
       <use x="179.199219" xlink:href="#DejaVuSans-48"/>
       <use x="242.822266" xlink:href="#DejaVuSans-53"/>
      </g>
     </g>
    </g>
    <g id="xtick_3">
     <g id="line2d_3">
      <g>
       <use style="stroke:#000000;stroke-width:0.8;" x="236.16" xlink:href="#me12d1af2fc" y="307.584"/>
      </g>
     </g>
     <g id="text_3">
      <!-- 0.00 -->
      <g transform="translate(225.027188 322.182437)scale(0.1 -0.1)">
       <use xlink:href="#DejaVuSans-48"/>
       <use x="63.623047" xlink:href="#DejaVuSans-46"/>
       <use x="95.410156" xlink:href="#DejaVuSans-48"/>
       <use x="159.033203" xlink:href="#DejaVuSans-48"/>
      </g>
     </g>
    </g>
    <g id="xtick_4">
     <g id="line2d_4">
      <g>
       <use style="stroke:#000000;stroke-width:0.8;" x="291.6" xlink:href="#me12d1af2fc" y="307.584"/>
      </g>
     </g>
     <g id="text_4">
      <!-- 0.05 -->
      <g transform="translate(280.467188 322.182437)scale(0.1 -0.1)">
       <use xlink:href="#DejaVuSans-48"/>
       <use x="63.623047" xlink:href="#DejaVuSans-46"/>
       <use x="95.410156" xlink:href="#DejaVuSans-48"/>
       <use x="159.033203" xlink:href="#DejaVuSans-53"/>
      </g>
     </g>
    </g>
    <g id="xtick_5">
     <g id="line2d_5">
      <g>
       <use style="stroke:#000000;stroke-width:0.8;" x="347.04" xlink:href="#me12d1af2fc" y="307.584"/>
      </g>
     </g>
     <g id="text_5">
      <!-- 0.10 -->
      <g transform="translate(335.907187 322.182437)scale(0.1 -0.1)">
       <use xlink:href="#DejaVuSans-48"/>
       <use x="63.623047" xlink:href="#DejaVuSans-46"/>
       <use x="95.410156" xlink:href="#DejaVuSans-49"/>
       <use x="159.033203" xlink:href="#DejaVuSans-48"/>
      </g>
     </g>
    </g>
   </g>
   <g id="matplotlib.axis_2">
    <g id="ytick_1">
     <g id="line2d_6">
      <defs>
       <path d="M 0 0 
L -3.5 0 
" id="me8f6457209" style="stroke:#000000;stroke-width:0.8;"/>
      </defs>
      <g>
       <use style="stroke:#000000;stroke-width:0.8;" x="103.104" xlink:href="#me8f6457209" y="285.408"/>
      </g>
     </g>
     <g id="text_6">
      <!-- −0.15 -->
      <g transform="translate(65.458688 289.207219)scale(0.1 -0.1)">
       <use xlink:href="#DejaVuSans-8722"/>
       <use x="83.789062" xlink:href="#DejaVuSans-48"/>
       <use x="147.412109" xlink:href="#DejaVuSans-46"/>
       <use x="179.199219" xlink:href="#DejaVuSans-49"/>
       <use x="242.822266" xlink:href="#DejaVuSans-53"/>
      </g>
     </g>
    </g>
    <g id="ytick_2">
     <g id="line2d_7">
      <g>
       <use style="stroke:#000000;stroke-width:0.8;" x="103.104" xlink:href="#me8f6457209" y="229.968"/>
      </g>
     </g>
     <g id="text_7">
      <!-- −0.10 -->
      <g transform="translate(65.458688 233.767219)scale(0.1 -0.1)">
       <use xlink:href="#DejaVuSans-8722"/>
       <use x="83.789062" xlink:href="#DejaVuSans-48"/>
       <use x="147.412109" xlink:href="#DejaVuSans-46"/>
       <use x="179.199219" xlink:href="#DejaVuSans-49"/>
       <use x="242.822266" xlink:href="#DejaVuSans-48"/>
      </g>
     </g>
    </g>
    <g id="ytick_3">
     <g id="line2d_8">
      <g>
       <use style="stroke:#000000;stroke-width:0.8;" x="103.104" xlink:href="#me8f6457209" y="174.528"/>
      </g>
     </g>
     <g id="text_8">
      <!-- −0.05 -->
      <g transform="translate(65.458688 178.327219)scale(0.1 -0.1)">
       <use xlink:href="#DejaVuSans-8722"/>
       <use x="83.789062" xlink:href="#DejaVuSans-48"/>
       <use x="147.412109" xlink:href="#DejaVuSans-46"/>
       <use x="179.199219" xlink:href="#DejaVuSans-48"/>
       <use x="242.822266" xlink:href="#DejaVuSans-53"/>
      </g>
     </g>
    </g>
    <g id="ytick_4">
     <g id="line2d_9">
      <g>
       <use style="stroke:#000000;stroke-width:0.8;" x="103.104" xlink:href="#me8f6457209" y="119.088"/>
      </g>
     </g>
     <g id="text_9">
      <!-- 0.00 -->
      <g transform="translate(73.838375 122.887219)scale(0.1 -0.1)">
       <use xlink:href="#DejaVuSans-48"/>
       <use x="63.623047" xlink:href="#DejaVuSans-46"/>
       <use x="95.410156" xlink:href="#DejaVuSans-48"/>
       <use x="159.033203" xlink:href="#DejaVuSans-48"/>
      </g>
     </g>
    </g>
    <g id="ytick_5">
     <g id="line2d_10">
      <g>
       <use style="stroke:#000000;stroke-width:0.8;" x="103.104" xlink:href="#me8f6457209" y="63.648"/>
      </g>
     </g>
     <g id="text_10">
      <!-- 0.05 -->
      <g transform="translate(73.838375 67.447219)scale(0.1 -0.1)">
       <use xlink:href="#DejaVuSans-48"/>
       <use x="63.623047" xlink:href="#DejaVuSans-46"/>
       <use x="95.410156" xlink:href="#DejaVuSans-48"/>
       <use x="159.033203" xlink:href="#DejaVuSans-53"/>
      </g>
     </g>
    </g>
   </g>
   <g id="patch_4">
    <path d="M 103.104 307.584 
L 103.104 41.472 
" style="fill:none;stroke:#000000;stroke-linecap:square;stroke-linejoin:miter;stroke-width:0.8;"/>
   </g>
   <g id="patch_5">
    <path d="M 369.216 307.584 
L 369.216 41.472 
" style="fill:none;stroke:#000000;stroke-linecap:square;stroke-linejoin:miter;stroke-width:0.8;"/>
   </g>
   <g id="patch_6">
    <path d="M 103.104 307.584 
L 369.216 307.584 
" style="fill:none;stroke:#000000;stroke-linecap:square;stroke-linejoin:miter;stroke-width:0.8;"/>
   </g>
   <g id="patch_7">
    <path d="M 103.104 41.472 
L 369.216 41.472 
" style="fill:none;stroke:#000000;stroke-linecap:square;stroke-linejoin:miter;stroke-width:0.8;"/>
   </g>
  </g>
 </g>
 <defs>
  <clipPath id="pb21dbbe060">
   <rect height="266.112" width="266.112" x="103.104" y="41.472"/>
  </clipPath>
 </defs>
</svg>
